<svg width="181" height="56" viewBox="0 0 181 56" fill="none" xmlns="http://www.w3.org/2000/svg">
<g clip-path="url(#clip0)">
<path d="M0 8C0 3.58172 3.58172 0 8 0L172.293 0C176.711 0 180.293 3.58172 180.293 8V48C180.293 52.4183 176.711 56 172.293 56H8.00001C3.58173 56 0 52.4183 0 48L0 8Z" fill="url(#paint0_linear)"/>
<path d="M16.2353 23.2517C15.0595 23.4697 13.9134 23.8303 12.8217 24.3257C11.7261 24.829 10.6922 25.4614 9.74119 26.21C8.83807 25.2198 8.08367 24.0991 7.50248 22.8843C6.91031 21.6685 6.48688 20.3748 6.24436 19.0404C7.31811 18.2848 8.48843 17.6825 9.72269 17.2503C11.0053 16.8009 12.3453 16.5438 13.7006 16.4872C13.8483 17.6854 14.134 18.8617 14.5517 19.9919C14.9774 21.1457 15.543 22.2407 16.2353 23.2517Z" fill="white"/>
<path d="M22.8405 16.5249L22.8425 16.5134L22.859 16.5249H22.8405Z" fill="white"/>
<path d="M22.8425 16.5134C20.8677 15.1294 18.5955 14.2481 16.2168 13.9435C16.2678 12.5928 16.5109 11.2568 16.9384 9.97712C17.3649 8.69401 17.9625 7.4767 18.7146 6.35935C21.3498 6.83701 23.7959 8.07274 25.7637 9.92059C25.0307 10.8736 24.4097 11.9107 23.9136 13.0108C23.4179 14.1295 23.0582 15.3058 22.8425 16.5134Z" fill="white"/>
<path d="M41.4255 13.8304C42.719 13.8798 44.0019 14.0885 45.2461 14.4522C46.5653 14.8353 47.8354 15.3761 49.0298 16.0633C49.0175 14.6557 48.8247 13.2558 48.4562 11.8991C48.1085 10.6111 47.6083 9.37098 46.9668 8.20592C45.8235 7.54881 44.6057 7.03627 43.3405 6.67968C42.0051 6.30444 40.6275 6.10808 39.2423 6.09556C39.918 7.30932 40.452 8.59937 40.8335 9.93943C41.1793 11.2084 41.378 12.5143 41.4255 13.8304Z" fill="white"/>
<path d="M27.5492 7.95155C28.4893 7.0673 29.526 6.29598 30.639 5.65276C31.8379 4.97769 33.111 4.44956 34.4318 4.07941C32.4972 2.14589 30.1136 0.742506 27.5029 0C26.2388 0.355643 25.0236 0.87157 23.8858 1.53567C22.6806 2.22936 21.5703 3.08144 20.5832 4.06999C21.9038 4.44513 23.1768 4.97633 24.3761 5.65276C25.5009 6.2953 26.55 7.06656 27.5029 7.95155H27.5492Z" fill="white"/>
<path d="M9.78745 29.8089L9.768 29.8303L9.74119 29.8089H9.78745Z" fill="white"/>
<path d="M9.768 29.8303C10.6957 30.5712 11.705 31.1995 12.7755 31.7026C13.8745 32.2172 15.0343 32.5845 16.2261 32.7954C15.5502 33.7985 14.9943 34.8802 14.5702 36.0175C14.14 37.1618 13.845 38.3541 13.6913 39.5693C12.3788 39.5007 11.0828 39.2406 9.84295 38.7968C8.58269 38.3591 7.3874 37.7473 6.29061 36.9785C6.52308 35.6717 6.93085 34.4036 7.50248 33.21C8.09267 31.9774 8.85586 30.8389 9.768 29.8303Z" fill="white"/>
<path d="M13.6266 13.7927C13.6757 12.4755 13.8807 11.169 14.2371 9.90175C14.6157 8.5621 15.1466 7.27206 15.819 6.05787C13.0944 6.08851 10.4227 6.82793 8.05753 8.20592C6.72497 10.6042 6.01197 13.3077 5.98533 16.0633C7.17756 15.3784 8.44427 14.8377 9.7597 14.4522C11.0041 14.0893 12.2869 13.8805 13.5803 13.8304L13.6266 13.7927Z" fill="white"/>
<path d="M29.3531 9.88291C30.0852 10.8535 30.7059 11.9061 31.2033 13.0202C31.6928 14.1316 32.05 15.2987 32.2671 16.4966C33.2598 15.7916 34.3351 15.2156 35.4679 14.782C36.5614 14.3737 37.6976 14.0955 38.8538 13.9529C38.7891 12.5737 38.5369 11.2104 38.1044 9.90175C37.6769 8.64439 37.0824 7.45253 36.3375 6.35935C35.0272 6.60635 33.7569 7.03757 32.5632 7.64065C31.3634 8.23033 30.2565 8.99874 29.2791 9.92059L29.3531 9.88291Z" fill="white"/>
<path d="M48.8355 19.0027C47.7384 18.2368 46.543 17.6282 45.2831 17.1938C44.0266 16.7584 42.7148 16.5109 41.3885 16.4589C41.2335 17.6699 40.9417 18.8586 40.5189 20.0013C40.0915 21.1389 39.5325 22.2206 38.8538 23.2234C40.0435 23.4428 41.2023 23.8098 42.3044 24.3163C43.3863 24.8237 44.4075 25.4559 45.3479 26.2005C46.2592 25.181 47.0252 24.0361 47.6236 22.7995C48.1731 21.6066 48.5561 20.3413 48.7615 19.0404L48.8355 19.0027Z" fill="white"/>
<path d="M38.7798 32.7766C39.4728 33.7856 40.0355 34.8812 40.4542 36.0363C40.8727 37.1766 41.1614 38.362 41.3145 39.5693C42.6826 39.4987 44.0342 39.2323 45.3294 38.7779C46.5648 38.3444 47.7353 37.7388 48.8077 36.9785C48.5685 35.6444 48.1482 34.3507 47.5589 33.1346C46.9709 31.9243 46.2137 30.8072 45.3109 29.8183C44.3579 30.5639 43.3243 31.196 42.2303 31.7026C41.1271 32.2015 39.9684 32.5621 38.7798 32.7766Z" fill="white"/>
<path d="M5.55054 24.825C4.88954 23.6032 4.37105 22.3068 4.00564 20.9623C3.03497 21.9675 2.1983 23.0983 1.51715 24.3257C0.861853 25.484 0.352141 26.7216 0 28.0094C0.350772 29.2992 0.85727 30.5397 1.5079 31.7026C2.18681 32.9286 3.02373 34.0566 3.99639 35.0565C4.36446 33.7145 4.88608 32.4212 5.55054 31.2032C6.18202 30.0528 6.94261 28.981 7.81701 28.0094C6.94479 27.0394 6.18435 25.971 5.55054 24.825Z" fill="white"/>
<path d="M51.0279 20.9623L51.0217 20.9849L51.0002 20.9623H51.0279Z" fill="white"/>
<path d="M51.0217 20.9849C52.8961 22.9544 54.259 25.3686 54.9873 28.0094C54.6366 29.2992 54.1301 30.5397 53.4794 31.7026C52.8038 32.9283 51.9699 34.0563 51.0002 35.0565C50.632 33.7146 50.1103 32.4213 49.446 31.2032C48.8209 30.0487 48.0598 28.9762 47.1796 28.0094C48.0673 27.0458 48.8376 25.9766 49.4738 24.825C50.1343 23.6104 50.6537 22.3217 51.0217 20.9849Z" fill="white"/>
<path d="M41.4255 42.1978C41.3763 43.512 41.1713 44.8153 40.815 46.0794C40.4428 47.4243 39.9117 48.7183 39.2331 49.9327C40.6182 49.9202 41.9959 49.7238 43.3312 49.3486C44.5947 48.991 45.812 48.4818 46.9576 47.8318C47.5959 46.6651 48.0958 45.4254 48.4469 44.1386C48.8193 42.7761 49.0153 41.3698 49.0298 39.9556C47.8386 40.645 46.5717 41.1889 45.2554 41.576C44.0062 41.9313 42.7212 42.1399 41.4255 42.1978Z" fill="white"/>
<path d="M27.5029 48.0485C26.5552 48.9427 25.5054 49.7176 24.3761 50.3567C23.1783 51.0341 21.9049 51.5623 20.5832 51.93C21.5678 52.9214 22.6786 53.7738 23.8858 54.4643C25.0236 55.1284 26.2388 55.6444 27.5029 56C28.7694 55.6428 29.9875 55.1269 31.1293 54.4643C32.3365 53.7738 33.4473 52.9214 34.4318 51.93C33.1096 51.5641 31.836 51.0357 30.639 50.3567C29.5053 49.72 28.4522 48.9449 27.5029 48.0485Z" fill="white"/>
<path d="M25.736 46.0794C25.001 45.1109 24.38 44.0579 23.8858 42.9421C23.4006 41.8331 23.0466 40.6693 22.8312 39.4751C21.8404 40.1809 20.7647 40.754 19.6304 41.1803C18.5197 41.6045 17.3651 41.8985 16.1891 42.0565C16.2393 43.4558 16.4917 44.8399 16.9384 46.1642C17.3627 47.4212 17.9541 48.6131 18.6961 49.7066C20.006 49.4629 21.2763 49.0349 22.4704 48.4347C23.6646 47.8216 24.7647 47.0345 25.736 46.0983V46.0794Z" fill="white"/>
<path d="M32.2116 39.4845L32.2053 39.5216L32.1654 39.4939L32.2116 39.4845Z" fill="white"/>
<path d="M32.2053 39.5216C31.9972 40.7222 31.6387 41.8908 31.1385 42.9987C30.6408 44.1008 30.0199 45.1409 29.2883 46.0983C30.2862 47.0304 31.411 47.811 32.6279 48.4159C33.8 48.998 35.0451 49.4133 36.3283 49.6501C37.0851 48.5342 37.686 47.3166 38.1137 46.0323C38.5521 44.7581 38.8015 43.4245 38.8538 42.0754C37.665 41.9162 36.4979 41.619 35.3754 41.1898C34.2574 40.7637 33.1932 40.2037 32.2053 39.5216Z" fill="white"/>
<path d="M13.5803 42.1978C12.2878 42.1385 11.006 41.9299 9.7597 41.576C8.44386 41.1875 7.17714 40.6437 5.98533 39.9556C5.99763 41.3663 6.19044 42.7693 6.55889 44.1292C6.90903 45.4178 7.4123 46.658 8.05753 47.8223C9.20152 48.4757 10.4192 48.985 11.6839 49.3392C13.016 49.7144 14.3906 49.9108 15.7728 49.9233C15.0987 48.7099 14.5677 47.4197 14.1909 46.0794C13.8345 44.8153 13.6295 43.512 13.5803 42.1978Z" fill="white"/>
<path d="M89.7337 11.3055C89.1821 10.9858 88.5305 10.8956 87.9151 11.0536C87.2997 11.2116 86.768 11.6056 86.4311 12.1534C86.2141 12.5204 86.099 12.9404 86.0981 13.3688C86.0949 13.7947 86.2103 14.2129 86.4311 14.5747C86.6438 14.9294 86.9435 15.2217 87.3007 15.4226C87.6741 15.6331 88.0951 15.7403 88.5218 15.7335C88.9477 15.7283 89.3651 15.6115 89.7337 15.3943C90.0863 15.1904 90.3823 14.8987 90.594 14.5464C90.8152 14.1828 90.9324 13.7635 90.9324 13.3358C90.9324 12.9081 90.8152 12.4888 90.594 12.1252C90.3803 11.782 90.0842 11.4999 89.7337 11.3055Z" fill="white"/>
<path fill-rule="evenodd" clip-rule="evenodd" d="M82.8418 24.5801C82.387 23.5148 81.7263 22.5536 80.8991 21.7537C80.0847 20.9362 79.1192 20.2914 78.0585 19.8564C76.9978 19.4213 75.8629 19.2048 74.7195 19.2194C73.7371 19.2432 72.77 19.4731 71.8787 19.8945C70.9874 20.316 70.1909 20.92 69.539 21.6689V11.4657H66.0144V27.9906C65.9916 29.1558 66.1927 30.3144 66.6065 31.4011C67.025 32.4632 67.655 33.4255 68.4566 34.2275C69.2525 35.0335 70.1952 35.6736 71.2319 36.1117C72.3085 36.5519 73.4576 36.779 74.6177 36.7806C75.7647 36.7958 76.9032 36.578 77.9666 36.14C79.0205 35.7034 79.9817 35.0636 80.7973 34.2557C82.0248 33.0197 82.8646 31.4405 83.2104 29.7181C83.5562 27.9958 83.3925 26.2076 82.74 24.5801H82.8418ZM79.4837 30.148C79.2298 30.8039 78.8563 31.4049 78.3829 31.9192C77.9168 32.4195 77.3526 32.8143 76.7269 33.0781C75.43 33.5931 73.9905 33.5931 72.6936 33.0781C72.0736 32.8137 71.5156 32.4188 71.0561 31.9192C70.5793 31.4094 70.208 30.8071 69.9645 30.148C69.7184 29.4665 69.5961 28.745 69.6037 28.0188C69.5946 27.2834 69.7169 26.5523 69.9645 25.8614C70.204 25.2087 70.576 24.6148 71.0561 24.1184C71.5173 23.6031 72.0821 23.195 72.7121 22.9219C73.3588 22.6547 74.0493 22.514 74.7473 22.5074C75.4331 22.5156 76.1111 22.6563 76.7454 22.9219C77.3658 23.2026 77.9231 23.6099 78.3829 24.1184C78.8595 24.6194 79.2337 25.2119 79.4837 25.8614C79.7391 26.5505 79.8646 27.2824 79.8537 28.0188C79.8629 28.746 79.7374 29.4683 79.4837 30.148Z" fill="white"/>
<path d="M86.7272 36.4038H90.2518V19.6057H86.7272V36.4038Z" fill="white"/>
<path fill-rule="evenodd" clip-rule="evenodd" d="M110.317 24.5707C109.866 23.5029 109.205 22.5409 108.374 21.7443C107.56 20.9344 106.599 20.2943 105.543 19.86C103.377 19.0056 100.975 19.0056 98.8088 19.86C97.7721 20.2981 96.8294 20.9382 96.0336 21.7443C95.2329 22.5471 94.6031 23.5092 94.1834 24.5707C93.3468 26.7645 93.3468 29.1978 94.1834 31.3917C94.6019 32.4537 95.2319 33.4161 96.0336 34.218C96.8294 35.0241 97.7721 35.6642 98.8088 36.1023C99.8841 36.547 101.034 36.7742 102.195 36.7712C103.338 36.7857 104.473 36.5692 105.534 36.1342C106.594 35.6992 107.56 35.0543 108.374 34.2369C109.602 33.0008 110.442 31.4217 110.787 29.6993C111.133 27.9769 110.969 26.1888 110.317 24.5612V24.5707ZM106.959 30.148C106.708 30.8057 106.335 31.4073 105.858 31.9192C105.394 32.4215 104.829 32.8166 104.202 33.0781C102.905 33.5931 101.466 33.5931 100.169 33.0781C99.5488 32.8137 98.9907 32.4188 98.5313 31.9192C98.0544 31.4094 97.6832 30.8071 97.4397 30.148C97.198 29.4653 97.0759 28.7446 97.0789 28.0188C97.0698 27.2834 97.192 26.5523 97.4397 25.8614C97.6814 25.2098 98.0531 24.6164 98.5313 24.1184C98.9943 23.6052 99.5586 23.1975 100.187 22.9219C100.832 22.6464 101.524 22.5054 102.222 22.5074C102.909 22.5055 103.589 22.6466 104.221 22.9219C104.841 23.2026 105.398 23.6099 105.858 24.1184C106.333 24.621 106.707 25.213 106.959 25.8614C107.217 26.5498 107.346 27.2818 107.338 28.0188C107.344 28.7466 107.216 29.4689 106.959 30.148Z" fill="white"/>
<path d="M130.142 23.2799L130.138 23.283C129.423 22.0665 128.405 21.0644 127.186 20.3788C125.966 19.6919 124.588 19.3471 123.194 19.3795C120.908 19.3795 118.715 20.3046 117.098 21.9513C115.481 23.598 114.572 25.8314 114.572 28.1602C114.572 30.4889 115.481 32.7223 117.098 34.369C118.715 36.0157 120.908 36.9408 123.194 36.9408C124.588 36.9682 125.964 36.6223 127.185 35.9378C128.405 35.2532 129.428 34.2541 130.151 33.0404L127.662 31.0902C127.19 31.8581 126.536 32.4932 125.76 32.9375C124.984 33.3819 124.112 33.6213 123.222 33.6339C122.523 33.6413 121.829 33.5028 121.185 33.227C120.54 32.9512 119.957 32.544 119.473 32.0303C118.988 31.5167 118.612 30.9075 118.368 30.2403C118.123 29.5731 118.015 28.862 118.051 28.1507C118.022 27.4429 118.135 26.7364 118.382 26.0743C118.629 25.4121 119.006 24.8081 119.49 24.2989C119.974 23.7896 120.554 23.3857 121.195 23.1118C121.837 22.8378 122.526 22.6995 123.222 22.7052C124.116 22.713 124.993 22.9534 125.77 23.4035C126.548 23.8537 127.199 24.4987 127.662 25.2773L130.138 23.283L130.142 23.2894V23.2799Z" fill="white"/>
<path fill-rule="evenodd" clip-rule="evenodd" d="M147.422 26.3795V36.5734H144.129V34.6891C143.471 35.4447 142.655 36.0401 141.74 36.4315C140.826 36.8228 139.837 37.0001 138.847 36.9502C135.387 36.9502 133.102 35 133.102 32.0888C133.102 29.1777 135.489 27.3217 139.18 27.3217H143.861V26.2005C143.912 25.7155 143.856 25.225 143.696 24.7651C143.537 24.3051 143.278 23.8875 142.939 23.5431C142.6 23.1986 142.189 22.936 141.737 22.7747C141.285 22.6134 140.803 22.5575 140.327 22.611C138.412 22.611 137.061 23.5532 135.757 25.1171L133.703 22.9879C134.478 21.847 135.52 20.9211 136.734 20.2942C137.949 19.6674 139.299 19.3595 140.66 19.3984C144.629 19.389 147.422 21.7537 147.422 26.3795ZM143.861 29.8466H139.624C137.774 29.8466 136.691 30.5249 136.691 31.9004C136.691 33.2759 137.968 34.1238 139.587 34.1238C140.12 34.153 140.654 34.0748 141.158 33.8935C141.662 33.7122 142.125 33.4315 142.522 33.0674C142.919 32.7033 143.242 32.263 143.472 31.7718C143.701 31.2805 143.833 30.748 143.861 30.2046V29.8466Z" fill="white"/>
<path d="M162.039 19.7847V22.969H160.966C158.348 22.969 156.127 24.5047 156.127 27.6231V36.5922H152.64V19.7847H155.933V21.9515C156.5 21.2056 157.23 20.6044 158.065 20.1956C158.9 19.7867 159.817 19.5815 160.744 19.5962C161.182 19.5986 161.617 19.662 162.039 19.7847Z" fill="white"/>
<path fill-rule="evenodd" clip-rule="evenodd" d="M179.995 29.3755H167.691C167.875 30.6658 168.531 31.8375 169.528 32.6554C170.525 33.4732 171.789 33.8767 173.066 33.7847C174.858 33.7719 176.578 33.0645 177.876 31.8062L179.56 34.2651C177.796 35.995 175.44 36.958 172.992 36.9502C171.86 36.9725 170.734 36.7674 169.68 36.3467C168.625 35.926 167.663 35.2979 166.846 34.4983C165.198 32.8835 164.248 30.6679 164.203 28.3392C164.159 26.0104 165.025 23.7591 166.611 22.0807C168.197 20.4022 170.372 19.4339 172.659 19.389C173.664 19.3567 174.665 19.5334 175.601 19.9085C176.537 20.2835 177.388 20.8489 178.103 21.5701C178.817 22.2913 179.379 23.1533 179.756 24.1033C180.132 25.0533 180.314 26.0715 180.291 27.0956C180.272 27.8579 180.173 28.6159 179.995 29.3567V29.3755ZM167.756 26.5491H176.738C176.744 25.9902 176.637 25.4361 176.424 24.9211C176.211 24.4062 175.895 23.9416 175.498 23.5562C175.1 23.1708 174.629 22.873 174.114 22.6812C173.598 22.4894 173.049 22.4078 172.501 22.4415C171.362 22.4415 170.259 22.8534 169.39 23.604C168.521 24.3545 167.942 25.3948 167.756 26.5397V26.5491Z" fill="white"/>
<path fill-rule="evenodd" clip-rule="evenodd" d="M86.6717 47.5585C86.6919 47.8844 86.6464 48.2111 86.5379 48.5184C86.4295 48.8257 86.2605 49.1072 86.0412 49.3455C85.822 49.5838 85.5571 49.7739 85.2631 49.904C84.969 50.0341 84.6518 50.1016 84.3312 50.1023C84.0327 50.1136 83.7353 50.0578 83.4604 49.939C83.1854 49.8201 82.9394 49.641 82.74 49.4145V51.8169H81.7132V45.1372H82.6383V45.8344C82.8314 45.573 83.0836 45.3629 83.3735 45.2218C83.6634 45.0808 83.9824 45.013 84.3034 45.0242C84.6256 45.021 84.9449 45.0854 85.2417 45.2132C85.5384 45.3411 85.8061 45.5297 86.0282 45.7674C86.2503 46.0051 86.422 46.2867 86.5327 46.5948C86.6434 46.903 86.6907 47.231 86.6717 47.5585ZM85.6171 47.5585C85.6296 47.3576 85.602 47.1562 85.5359 46.9665C85.4699 46.7768 85.3667 46.6027 85.2326 46.4547C85.0986 46.3067 84.9365 46.188 84.7561 46.1057C84.5757 46.0234 84.3808 45.9792 84.1832 45.9757C83.7905 46.0066 83.4237 46.1872 83.1562 46.4815C82.8886 46.7758 82.7399 47.1621 82.7399 47.5632C82.7399 47.9643 82.8886 48.3506 83.1562 48.6449C83.4237 48.9393 83.7905 49.1199 84.1832 49.1507C84.3808 49.1473 84.5757 49.1031 84.7561 49.0208C84.9365 48.9384 85.0986 48.8197 85.2326 48.6718C85.3667 48.5238 85.4699 48.3497 85.5359 48.16C85.602 47.9702 85.6296 47.7688 85.6171 47.5679V47.5585Z" fill="white"/>
<path fill-rule="evenodd" clip-rule="evenodd" d="M91.7041 50.0458V47.1064C91.7333 46.8322 91.7029 46.5548 91.6153 46.2939C91.5276 46.0329 91.3848 45.7948 91.1968 45.5962C91.0089 45.3976 90.7805 45.2435 90.5277 45.1447C90.2749 45.0459 90.0038 45.0048 89.7337 45.0243C89.3357 45.0192 88.943 45.1167 88.592 45.3078C88.241 45.4989 87.9432 45.7773 87.7263 46.1171L88.3183 46.7295C88.4681 46.512 88.6657 46.3332 88.8954 46.2072C89.1251 46.0813 89.3804 46.0117 89.6412 46.0041C89.7784 45.9893 89.9171 46.0059 90.0472 46.0527C90.1773 46.0995 90.2955 46.1754 90.393 46.2748C90.4906 46.3741 90.5651 46.4945 90.6111 46.6269C90.6571 46.7594 90.6734 46.9007 90.6588 47.0404V47.3608H89.3544C88.2906 47.3608 87.5967 47.9072 87.5967 48.7457C87.5967 49.5842 88.2628 50.1494 89.2619 50.1494C89.5469 50.1677 89.8322 50.1185 90.0954 50.0057C90.3586 49.8929 90.5926 49.7196 90.7791 49.4994V50.0458H91.7041ZM90.6588 48.0485V48.1521C90.6444 48.4654 90.5088 48.7601 90.2818 48.9719C90.0547 49.1838 89.7546 49.2955 89.4469 49.2827C88.9751 49.2827 88.6051 49.0377 88.6051 48.642C88.6051 48.2463 88.9104 48.0485 89.4562 48.0485H90.6588Z" fill="white"/>
<path d="M94.4146 43.3378C94.4122 43.4293 94.3922 43.5195 94.3555 43.6032C94.3189 43.6868 94.2664 43.7623 94.2011 43.8253C94.1358 43.8883 94.059 43.9376 93.975 43.9703C93.891 44.0031 93.8015 44.0186 93.7116 44.0161C93.6218 44.0199 93.5322 44.0052 93.4481 43.9728C93.3641 43.9404 93.2874 43.8911 93.2226 43.8277C93.1577 43.7643 93.1062 43.6883 93.071 43.6041C93.0358 43.5199 93.0177 43.4293 93.0178 43.3378C93.0178 43.2454 93.0358 43.154 93.0707 43.0688C93.1057 42.9836 93.157 42.9063 93.2215 42.8414C93.2861 42.7766 93.3626 42.7254 93.4468 42.6909C93.5309 42.6565 93.6209 42.6394 93.7116 42.6406C93.8949 42.6405 94.071 42.7134 94.2023 42.8436C94.3336 42.9738 94.4098 43.1512 94.4146 43.3378Z" fill="white"/>
<path d="M93.2028 50.008V45.1372H94.2204V50.008H93.2028Z" fill="white"/>
<path d="M99.9097 49.9987V46.9556C99.9356 46.7027 99.9072 46.4472 99.8265 46.2066C99.7457 45.9661 99.6145 45.7463 99.442 45.5625C99.2695 45.3788 99.0598 45.2354 98.8275 45.1425C98.5951 45.0495 98.3457 45.0092 98.0965 45.0242C97.8304 45.0144 97.5654 45.0632 97.3195 45.1673C97.0737 45.2713 96.8528 45.4282 96.6719 45.6272V45.1373H95.7468V50.0081H96.7644V47.1063C96.758 46.9577 96.7817 46.8094 96.834 46.6705C96.8864 46.5316 96.9663 46.4052 97.0687 46.2992C97.1711 46.1931 97.2938 46.1097 97.4293 46.054C97.5647 45.9984 97.71 45.9718 97.856 45.9758C97.9993 45.9725 98.1417 46.0001 98.2738 46.0568C98.406 46.1135 98.5248 46.198 98.6227 46.3047C98.7205 46.4115 98.795 46.5381 98.8415 46.6762C98.8879 46.8144 98.9052 46.9609 98.8921 47.1063V49.9987H99.9097Z" fill="white"/>
<path d="M111.39 46.9555V49.9986H110.354V47.1063C110.373 46.9637 110.361 46.8187 110.319 46.6812C110.278 46.5437 110.208 46.4169 110.114 46.3096C110.02 46.2022 109.904 46.1168 109.775 46.0592C109.645 46.0016 109.505 45.9731 109.364 45.9757C109.22 45.9711 109.077 45.9977 108.943 46.0538C108.81 46.1099 108.69 46.1942 108.591 46.3011C108.492 46.408 108.417 46.535 108.37 46.6739C108.323 46.8127 108.306 46.9601 108.319 47.1063V50.0457H107.31V47.1063C107.326 46.9635 107.312 46.8189 107.269 46.6821C107.226 46.5453 107.154 46.4193 107.06 46.3125C106.966 46.2057 106.85 46.1205 106.721 46.0624C106.592 46.0044 106.452 45.9748 106.311 45.9757C106.167 45.9712 106.023 45.9979 105.889 46.0539C105.756 46.1099 105.635 46.194 105.536 46.3007C105.436 46.4074 105.36 46.5344 105.312 46.6732C105.264 46.812 105.245 46.9596 105.257 47.1063V49.9986H104.239V45.1372H105.164V45.5989C105.342 45.411 105.557 45.263 105.794 45.164C106.031 45.0651 106.286 45.0175 106.543 45.0242C106.828 45.0075 107.113 45.0695 107.367 45.2038C107.621 45.3381 107.835 45.5397 107.986 45.7873C108.18 45.5427 108.428 45.3468 108.708 45.2145C108.989 45.0822 109.295 45.0171 109.605 45.0242C109.852 45.0118 110.099 45.0541 110.329 45.1484C110.558 45.2427 110.765 45.3866 110.935 45.5703C111.105 45.7539 111.233 45.9728 111.312 46.212C111.39 46.4512 111.417 46.7048 111.39 46.9555Z" fill="white"/>
<path fill-rule="evenodd" clip-rule="evenodd" d="M116.663 50.0457V47.1063C116.692 46.8338 116.662 46.5581 116.575 46.2986C116.489 46.0391 116.348 45.802 116.162 45.6038C115.976 45.4055 115.75 45.251 115.499 45.1509C115.249 45.0508 114.98 45.0075 114.711 45.0242C114.313 45.0191 113.92 45.1166 113.569 45.3077C113.218 45.4988 112.921 45.7772 112.704 46.117L113.296 46.7294C113.446 46.5119 113.643 46.3331 113.873 46.2071C114.103 46.0812 114.358 46.0116 114.619 46.004C114.756 45.9891 114.895 46.0058 115.025 46.0526C115.155 46.0994 115.273 46.1753 115.37 46.2747C115.468 46.374 115.543 46.4944 115.589 46.6268C115.635 46.7593 115.651 46.9006 115.636 47.0403V47.3606H114.304C113.24 47.3606 112.546 47.9071 112.546 48.7456C112.546 49.5841 113.213 50.1493 114.212 50.1493C114.497 50.1634 114.783 50.1124 115.047 49.9999C115.311 49.8875 115.547 49.7164 115.738 49.4993V50.0457H116.663ZM115.636 48.0484V48.152C115.629 48.3088 115.592 48.4626 115.526 48.6045C115.46 48.7464 115.367 48.8736 115.253 48.9788C115.138 49.0839 115.005 49.1649 114.859 49.217C114.714 49.2692 114.56 49.2915 114.406 49.2826C113.943 49.2826 113.573 49.0376 113.573 48.6419C113.573 48.2462 113.869 48.0484 114.415 48.0484H115.636Z" fill="white"/>
<path d="M122.325 46.9556V49.9987H121.307V47.1063C121.32 46.9609 121.303 46.8144 121.256 46.6762C121.21 46.5381 121.135 46.4115 121.038 46.3047C120.94 46.198 120.821 46.1135 120.689 46.0568C120.557 46.0001 120.414 45.9725 120.271 45.9758C120.125 45.9718 119.98 45.9984 119.844 46.054C119.709 46.1097 119.586 46.1931 119.484 46.2992C119.381 46.4052 119.301 46.5316 119.249 46.6705C119.197 46.8094 119.173 46.9577 119.179 47.1063V50.0081H118.162V45.1373H119.087V45.6272C119.268 45.4282 119.489 45.2713 119.734 45.1673C119.98 45.0632 120.245 45.0144 120.511 45.0242C120.761 45.0092 121.01 45.0495 121.242 45.1425C121.475 45.2354 121.684 45.3788 121.857 45.5625C122.029 45.7463 122.161 45.9661 122.241 46.2066C122.322 46.4472 122.351 46.7027 122.325 46.9556Z" fill="white"/>
<path fill-rule="evenodd" clip-rule="evenodd" d="M127.607 50.0458V47.1063C127.628 46.84 127.593 46.5722 127.505 46.3206C127.417 46.0689 127.277 45.8393 127.095 45.6468C126.914 45.4544 126.693 45.3035 126.45 45.2043C126.206 45.1051 125.945 45.0598 125.683 45.0713C125.289 45.0603 124.899 45.1502 124.548 45.333C124.197 45.5157 123.897 45.7854 123.675 46.1171L124.267 46.7295C124.417 46.512 124.615 46.3331 124.844 46.2072C125.074 46.0812 125.329 46.0117 125.59 46.004C125.727 45.9892 125.866 46.0058 125.996 46.0527C126.126 46.0995 126.244 46.1754 126.342 46.2747C126.44 46.3741 126.514 46.4944 126.56 46.6269C126.606 46.7594 126.622 46.9007 126.608 47.0404V47.3607H125.257C124.184 47.3607 123.499 47.9071 123.499 48.7456C123.499 49.5841 124.156 50.1494 125.155 50.1494C125.441 50.1655 125.727 50.1154 125.992 50.0028C126.256 49.8902 126.492 49.7181 126.682 49.4993V50.0458H127.607ZM126.58 48.0485V48.1521C126.573 48.3089 126.535 48.4627 126.47 48.6046C126.404 48.7465 126.311 48.8737 126.196 48.9788C126.082 49.084 125.948 49.165 125.803 49.2171C125.658 49.2693 125.504 49.2915 125.35 49.2826C124.878 49.2826 124.508 49.0377 124.508 48.642C124.508 48.2463 124.813 48.0485 125.359 48.0485H126.58Z" fill="white"/>
<path fill-rule="evenodd" clip-rule="evenodd" d="M133.786 45.1373V49.4899C133.813 49.8176 133.768 50.1473 133.655 50.4552C133.541 50.763 133.362 51.0414 133.13 51.2703C132.899 51.4992 132.62 51.6728 132.314 51.7788C132.008 51.8847 131.684 51.9203 131.363 51.8829C130.509 51.887 129.688 51.5485 129.078 50.9408L129.642 50.2248C130.096 50.6534 130.688 50.8981 131.307 50.9125C131.494 50.9353 131.684 50.9156 131.862 50.855C132.041 50.7944 132.204 50.6944 132.34 50.562C132.476 50.4297 132.582 50.2683 132.65 50.0895C132.717 49.9107 132.745 49.7188 132.732 49.5276V49.1979C132.527 49.4222 132.278 49.5989 132 49.7159C131.722 49.833 131.423 49.8876 131.122 49.8762C130.514 49.8376 129.943 49.5643 129.525 49.1118C129.107 48.6593 128.875 48.0617 128.875 47.4408C128.875 46.8199 129.107 46.2223 129.525 45.7698C129.943 45.3173 130.514 45.044 131.122 45.0054C131.447 44.9928 131.771 45.0597 132.065 45.2007C132.36 45.3417 132.617 45.5526 132.815 45.8156V45.1185L133.786 45.1373ZM132.769 47.4549C132.785 47.2598 132.76 47.0634 132.696 46.8788C132.631 46.6941 132.529 46.5255 132.397 46.3839C132.264 46.2423 132.103 46.1311 131.925 46.0575C131.746 45.9839 131.555 45.9496 131.363 45.957C130.968 45.957 130.589 46.1168 130.31 46.4012C130.03 46.6857 129.873 47.0715 129.873 47.4738C129.873 47.8761 130.03 48.2619 130.31 48.5463C130.589 48.8308 130.968 48.9906 131.363 48.9906C131.558 48.9955 131.751 48.9583 131.931 48.8814C132.11 48.8045 132.272 48.6897 132.405 48.5446C132.538 48.3995 132.639 48.2274 132.702 48.0395C132.764 47.8517 132.787 47.6525 132.769 47.4549Z" fill="white"/>
<path fill-rule="evenodd" clip-rule="evenodd" d="M136.071 47.9072H139.624C139.672 47.6941 139.694 47.4757 139.689 47.2571C139.696 46.9618 139.645 46.6679 139.537 46.3935C139.43 46.1191 139.269 45.8699 139.063 45.6609C138.858 45.452 138.613 45.2878 138.344 45.1784C138.075 45.0689 137.786 45.0165 137.496 45.0243C137.156 45.0115 136.817 45.0695 136.5 45.1948C136.183 45.32 135.895 45.5099 135.652 45.7528C135.41 45.9956 135.219 46.2863 135.09 46.6071C134.962 46.9279 134.9 47.2719 134.907 47.6182C134.914 47.9644 134.99 48.3056 135.131 48.6208C135.272 48.9359 135.474 49.2185 135.726 49.4511C135.978 49.6836 136.274 49.8614 136.596 49.9734C136.918 50.0853 137.259 50.1292 137.598 50.1023C138.309 50.1065 138.994 49.8256 139.504 49.3204L139.013 48.6138C138.638 48.9764 138.143 49.1817 137.626 49.1885C137.256 49.2137 136.89 49.0957 136.602 48.8581C136.314 48.6206 136.124 48.2809 136.071 47.9072ZM138.689 47.1064H136.09C136.143 46.7752 136.309 46.4739 136.56 46.2564C136.811 46.039 137.13 45.9194 137.459 45.9193C137.618 45.9089 137.777 45.932 137.927 45.9871C138.076 46.0422 138.213 46.1282 138.328 46.2396C138.444 46.351 138.536 46.4855 138.598 46.6346C138.66 46.7838 138.691 46.9444 138.689 47.1064Z" fill="white"/>
<path d="M148.107 46.9555V49.9986H147.089V47.1063C147.108 46.9637 147.096 46.8187 147.055 46.6812C147.013 46.5437 146.943 46.4169 146.849 46.3096C146.755 46.2022 146.64 46.1168 146.51 46.0592C146.381 46.0016 146.241 45.9731 146.099 45.9757C145.954 45.9683 145.808 45.9929 145.673 46.0478C145.537 46.1026 145.415 46.1865 145.314 46.2937C145.213 46.4009 145.136 46.529 145.088 46.6692C145.04 46.8093 145.022 46.9584 145.036 47.1063V50.0457H144.018V47.1063C144.034 46.9635 144.019 46.8189 143.976 46.6821C143.933 46.5453 143.862 46.4193 143.768 46.3125C143.673 46.2057 143.558 46.1205 143.429 46.0624C143.3 46.0044 143.16 45.9748 143.019 45.9757C142.874 45.9712 142.731 45.9979 142.597 46.0539C142.463 46.1099 142.343 46.194 142.243 46.3007C142.144 46.4074 142.067 46.5344 142.019 46.6732C141.971 46.812 141.952 46.9596 141.964 47.1063V49.9986H140.947V45.1372H141.872V45.5989C142.05 45.411 142.264 45.263 142.502 45.164C142.739 45.0651 142.994 45.0175 143.25 45.0242C143.536 45.0075 143.821 45.0695 144.075 45.2038C144.329 45.3381 144.542 45.5397 144.693 45.7873C144.888 45.5427 145.135 45.3468 145.416 45.2145C145.696 45.0822 146.003 45.0171 146.312 45.0242C146.56 45.0103 146.808 45.0517 147.039 45.1453C147.27 45.239 147.478 45.3827 147.649 45.5665C147.82 45.7503 147.949 45.9697 148.028 46.2096C148.107 46.4495 148.134 46.704 148.107 46.9555Z" fill="white"/>
<path fill-rule="evenodd" clip-rule="evenodd" d="M150.336 47.9072H153.889C153.935 47.6936 153.96 47.4758 153.963 47.2571C153.972 46.9606 153.921 46.6653 153.813 46.3897C153.706 46.114 153.544 45.8637 153.337 45.6544C153.131 45.445 152.884 45.2811 152.613 45.1727C152.342 45.0643 152.052 45.0138 151.761 45.0243C151.421 45.0115 151.082 45.0695 150.765 45.1948C150.448 45.32 150.16 45.5099 149.917 45.7528C149.675 45.9956 149.484 46.2863 149.355 46.6071C149.227 46.9279 149.165 47.2719 149.171 47.6182C149.178 47.9644 149.255 48.3056 149.396 48.6208C149.537 48.9359 149.739 49.2185 149.991 49.4511C150.243 49.6836 150.539 49.8614 150.861 49.9734C151.183 50.0853 151.524 50.1292 151.863 50.1023C152.571 50.107 153.253 49.8259 153.759 49.3204L153.278 48.6138C152.903 48.9764 152.408 49.1817 151.89 49.1885C151.521 49.2137 151.155 49.0957 150.867 48.8581C150.579 48.6206 150.389 48.2809 150.336 47.9072ZM152.945 47.1064H150.355C150.405 46.7751 150.57 46.4728 150.819 46.2536C151.068 46.0345 151.385 45.9126 151.715 45.9099C151.875 45.898 152.035 45.9203 152.186 45.9755C152.337 46.0306 152.475 46.1174 152.591 46.2301C152.706 46.3428 152.798 46.479 152.859 46.63C152.92 46.7809 152.949 46.9432 152.945 47.1064Z" fill="white"/>
<path d="M159.374 46.9556V49.9987H158.357V47.1064C158.369 46.9605 158.35 46.8137 158.303 46.6756C158.255 46.5374 158.18 46.411 158.081 46.3044C157.982 46.1978 157.863 46.1135 157.731 46.0569C157.598 46.0003 157.455 45.9727 157.312 45.9758C157.166 45.9717 157.021 45.9984 156.886 46.0541C156.751 46.1098 156.629 46.1934 156.527 46.2996C156.426 46.4059 156.347 46.5324 156.295 46.6712C156.244 46.8101 156.221 46.9582 156.229 47.1064V50.0081H155.212V45.1373H156.137V45.6272C156.321 45.4304 156.544 45.2751 156.791 45.1713C157.038 45.0674 157.303 45.0173 157.571 45.0243C157.819 45.0106 158.067 45.0521 158.299 45.1456C158.53 45.2392 158.738 45.3827 158.91 45.5663C159.081 45.7499 159.212 45.9692 159.292 46.2091C159.372 46.4489 159.4 46.7036 159.374 46.9556Z" fill="white"/>
<path d="M163.741 49.9987V49.1131C163.527 49.1535 163.311 49.1818 163.093 49.1979C162.52 49.1979 162.168 49.0001 162.168 48.3594V46.0795H163.584V45.1373H162.168V43.8655H161.141V45.0996H160.364V46.0418H161.141V48.4159C161.121 48.6518 161.153 48.8894 161.235 49.1108C161.318 49.3323 161.449 49.5317 161.618 49.6941C161.787 49.8565 161.99 49.9776 162.212 50.0484C162.434 50.1191 162.669 50.1375 162.899 50.1023C163.183 50.0992 163.465 50.0644 163.741 49.9987Z" fill="white"/>
</g>
<defs>
<linearGradient id="paint0_linear" x1="90.1463" y1="0" x2="90.1463" y2="56" gradientUnits="userSpaceOnUse">
<stop stop-color="#0094D9"/>
<stop offset="1" stop-color="#1950A3"/>
</linearGradient>
<clipPath id="clip0">
<path d="M0 8C0 3.58172 3.58172 0 8 0L172.293 0C176.711 0 180.293 3.58172 180.293 8V48C180.293 52.4183 176.711 56 172.293 56H8.00001C3.58173 56 0 52.4183 0 48L0 8Z" fill="white"/>
</clipPath>
</defs>
</svg>
