<svg id="Capa_1" enable-background="new 0 0 496.624 496.624" height="512" viewBox="0 0 496.624 496.624" width="512" xmlns="http://www.w3.org/2000/svg"><path d="m248.312 89.346c0-28.134-11.176-55.115-31.069-75.008-18.93-18.93-49.555-19.143-68.746-.478-19.573 19.036-19.791 50.403-.485 69.709-19.306-19.306-50.674-19.088-69.709.485-18.665 19.191-18.452 49.817.478 68.746 19.893 19.894 46.875 31.07 75.008 31.07l5.409 31.715 89.115-31.715 26.448-94.524z" fill="#b8de9c"/><path d="m263.312 345.344c0 25.034-4.426 49.935-13.669 73.2-9.818 24.715-24.332 46.786-43.102 65.556l-8.129 8.13c-5.858 5.858-15.355 5.858-21.213.001-5.858-5.858-5.858-15.355 0-21.213l8.13-8.13c30.943-30.942 47.984-72.082 47.984-115.842v-131.46h30v129.758z" fill="#a6d786"/><path d="m233.312 347.045c0 6.645-.399 13.228-1.174 19.725 2.879-2.928 5.599-5.972 8.155-9.121 4.148-5.111 11.89-5.109 16.038.003 1.936 2.386 3.966 4.711 6.088 6.972.593-6.401.892-12.836.892-19.28v-129.759h-30v131.46z" fill="#94cf6f"/><path d="m417.844 214.94c-19.893-19.894-46.875-31.07-75.008-31.07l-16.6-28.721-62.923 11.096-15 17.625-34.218 37.061v26.959l34.218 30.504c0 28.134 11.176 55.115 31.069 75.008 18.93 18.93 49.555 19.143 68.746.478 19.573-19.036 19.791-50.403.485-69.709 19.306 19.306 50.674 19.088 69.709-.485 18.665-19.191 18.452-49.816-.478-68.746z" fill="#b8de9c"/><g><path d="m418.322 84.054c-19.036-19.573-50.403-19.791-69.709-.485 19.306-19.306 19.088-50.674-.485-69.709-19.191-18.665-49.817-18.452-68.746.478-19.893 19.893-31.069 46.875-31.069 75.008v94.524h94.524c28.134 0 55.115-11.176 75.008-31.07 18.929-18.929 19.142-49.554.477-68.746z" fill="#a6d786"/><path d="m314.551 239.502-55.632-55.632h-10.607v10.607l55.632 55.632c1.464 1.464 3.384 2.196 5.303 2.196s3.839-.732 5.303-2.196c2.93-2.929 2.93-7.677.001-10.607z" fill="#a6d786"/><path d="m303.944 117.631-55.632 55.632v10.607h10.607l55.632-55.632c2.929-2.93 2.929-7.678 0-10.607-2.929-2.927-7.678-2.927-10.607 0z" fill="#94cf6f"/><path d="m78.302 283.686c19.036 19.573 50.403 19.791 69.709.485-19.306 19.306-19.088 50.674.485 69.709 19.191 18.665 49.817 18.452 68.746-.478 19.893-19.893 31.069-46.875 31.069-75.008v-94.524h-94.524c-28.134 0-55.115 11.176-75.008 31.07-18.929 18.93-19.142 49.555-.477 68.746z" fill="#a6d786"/><path d="m248.312 183.87h-10.607l-55.632 55.632c-2.929 2.93-2.929 7.678 0 10.607 1.464 1.464 3.384 2.196 5.303 2.196s3.839-.732 5.303-2.196l55.632-55.632v-10.607z" fill="#94cf6f"/><path d="m248.312 173.264-55.632-55.632c-2.929-2.928-7.678-2.928-10.606 0-2.929 2.93-2.929 7.678 0 10.607l55.632 55.632h10.607v-10.607z" fill="#a6d786"/></g><path d="m222.71 20.239c-1.742-2.028-3.564-3.998-5.467-5.901-18.93-18.93-49.555-19.143-68.746-.478-19.573 19.036-19.791 50.403-.485 69.709-19.306-19.306-50.674-19.088-69.709.485-18.665 19.191-18.452 49.817.478 68.746 16.574 16.574 38.069 27.09 61.049 30.14.299-66.778 32.85-125.931 82.88-162.701z" fill="#a6d786"/><path d="m139.829 184.8c-22.981 3.05-44.476 13.566-61.049 30.14-18.93 18.93-19.143 49.555-.478 68.746 19.036 19.573 50.403 19.791 69.709.485-19.306 19.306-19.088 50.674.485 69.709 19.191 18.665 49.817 18.452 68.746-.478 1.903-1.904 3.726-3.873 5.467-5.901-50.029-36.769-82.58-95.922-82.88-162.701z" fill="#94cf6f"/></svg>