<svg width="48" height="48" viewBox="0 0 48 48" fill="none" xmlns="http://www.w3.org/2000/svg">
<path d="M7.66667 3H26.3333C27.806 3 29 4.26606 29 5.82759V41.1724C29 42.7339 27.806 44 26.3333 44H7.66667C6.19401 44 5 42.7339 5 41.1724V5.82759C5 4.26606 6.19401 3 7.66667 3Z" fill="#2D72BC"/>
<path d="M8 3H26.2903C27.7867 3 29 4.26682 29 5.82927V32H18.8387C12.8527 32 8 26.9331 8 20.6829V3Z" fill="#4891D3"/>
<path d="M26.4 3H16C16 4.60653 17.1642 5.90909 18.6 5.90909H25.1C25.8179 5.90909 26.4 6.56037 26.4 7.36364V16.0909C26.4 17.6974 27.5642 19 29 19V5.90909C29 4.30256 27.8358 3 26.4 3Z" fill="#57B7EB"/>
<path d="M5 35H29V41C29 42.6567 27.806 44 26.3333 44H7.66667C6.19401 44 5 42.6567 5 41V35Z" fill="#FCBC04"/>
<path d="M14.6 39H19.4C19.7313 39 20 39.2239 20 39.5V40.5C20 40.7761 19.7313 41 19.4 41H14.6C14.2687 41 14 40.7761 14 40.5V39.5C14 39.2239 14.2687 39 14.6 39Z" fill="#7AB92D"/>
<path d="M15 39H19.375C19.7202 39 20 39.2239 20 39.5V40H16.25C15.5597 40 15 39.5522 15 39Z" fill="#A1D51C"/>
<path d="M27 35H9C9 36.4201 9.89551 37.5714 11 37.5714H26.3333C26.7015 37.5714 27 37.9552 27 38.4286C27 39.8486 27.8955 41 29 41V35H27Z" fill="#F9E109"/>
<path d="M24 20C24 23.866 20.866 27 17 27C13.134 27 10 23.866 10 20C10 16.134 13.134 13 17 13C20.866 13 24 16.134 24 20Z" fill="#E59730"/>
<path d="M16.975 13C15.1074 13.0009 13.3175 13.7514 12 15.0854C12.4559 17.6921 14.1089 19.9277 16.457 21.1136C18.8055 22.2993 21.5721 22.2952 23.9171 21.1026C23.9704 20.7642 23.9981 20.4223 24 20.0794C24 16.1695 20.8548 13 16.975 13Z" fill="#FCBC04"/>
<path d="M17 27C18.8244 27.001 20.592 26.422 22 25.3632V12H12V25.3632C13.408 26.422 15.1756 27.001 17 27Z" fill="#C4F236"/>
<path d="M19 20C19 21.1045 18.1045 22 17 22C15.8955 22 15 21.1045 15 20C15 18.8955 15.8955 18 17 18C18.1045 18 19 18.8955 19 20Z" fill="#F9E109"/>
<path d="M19 12H22V14C20.3433 14 19 13.1045 19 12Z" fill="#F9E109"/>
<path d="M19.1429 25.0408H19.0857C16.3175 24.9734 14.1184 22.8937 14.1429 20.3658V12H12V25.3605C14.9032 27.5465 19.0968 27.5465 22 25.3605V24.5454C21.0904 24.8734 20.1208 25.0415 19.1429 25.0408Z" fill="#A1D51C"/>
<path d="M12 12H15C15 13.1045 13.6567 14 12 14V12Z" fill="#F9E109"/>
<path d="M14 13.3101V12H12V14C12.7679 13.9968 13.4971 13.7454 14 13.3101Z" fill="#FCBC04"/>
<path d="M18 25C18 25.5522 17.5522 26 17 26C16.4478 26 16 25.5522 16 25C16 24.4478 16.4478 24 17 24C17.5522 24 18 24.4478 18 25Z" fill="#FCBC04"/>
<path d="M18 15C18 15.5522 17.5522 16 17 16C16.4478 16 16 15.5522 16 15C16 14.4478 16.4478 14 17 14C17.5522 14 18 14.4478 18 15Z" fill="#F9E109"/>
<path d="M17.7536 26C17.9084 25.7843 17.995 25.5111 18 25.2271C18 24.5494 17.5408 24 16.9745 24C16.5138 24.0102 16.1152 24.3865 16 24.9203C16.5413 25.3739 17.1312 25.737 17.7536 26Z" fill="#F9E109"/>
<path d="M26 8.5C26 9.32837 25.5522 10 25 10C24.4478 10 24 9.32837 24 8.5C24 7.67163 24.4478 7 25 7C25.5522 7 26 7.67163 26 8.5Z" fill="#F9E109"/>
<path d="M25.5716 9.21012C24.9945 9.21012 24.5266 8.50824 24.5266 7.64256C24.5274 7.42059 24.5592 7.20169 24.6207 7C24.1944 7.28397 23.9454 7.95753 24.0102 8.65022C24.075 9.34292 24.4381 9.8875 24.8999 9.98471C25.3616 10.0819 25.8107 9.7084 26 9.0689C25.8655 9.16113 25.7196 9.20897 25.5716 9.21012Z" fill="#FCBC04"/>
<path d="M9.6264 6.53453C9.6264 6.92491 9.33048 7.24143 8.96548 7.24143C8.60049 7.24143 8.30457 6.92491 8.30457 6.53453C8.30457 6.14415 8.60049 5.82764 8.96548 5.82764C9.33048 5.82764 9.6264 6.14415 9.6264 6.53453Z" fill="#A1D51C"/>
<path d="M12.2701 6.53453C12.2701 6.92491 11.9742 7.24143 11.6092 7.24143C11.2442 7.24143 10.9482 6.92491 10.9482 6.53453C10.9482 6.14415 11.2442 5.82764 11.6092 5.82764C11.9742 5.82764 12.2701 6.14415 12.2701 6.53453Z" fill="#A1D51C"/>
<path d="M14.2528 31.9828H8.96547V30.074L9.07777 30.2508C9.19944 30.4485 9.40533 30.5676 9.62639 30.569C9.75644 30.5707 9.88359 30.5286 9.98976 30.4489C10.2915 30.2332 10.3741 29.7976 10.175 29.4734L8.85316 27.3528C8.73021 27.157 8.52464 27.04 8.30455 27.04C8.08446 27.04 7.87889 27.157 7.75593 27.3528L6.43409 29.4734C6.27693 29.6823 6.24369 29.9684 6.34825 30.2121C6.45313 30.4558 6.67774 30.6153 6.92849 30.6232C7.17924 30.6315 7.41256 30.4872 7.53132 30.2508L7.64363 30.074V32.6897C7.64363 33.0801 7.93956 33.3966 8.30455 33.3966H14.2528C14.6178 33.3966 14.9138 33.0801 14.9138 32.6897C14.9138 32.2993 14.6178 31.9828 14.2528 31.9828Z" fill="#A1D51C"/>
<path d="M26.5126 29.9819C26.2096 29.7689 25.8024 29.8573 25.6007 30.18L25.4884 30.3567V27.7411C25.4884 27.3507 25.1924 27.0342 24.8274 27.0342C24.4625 27.0342 24.1665 27.3507 24.1665 27.7411V30.3567L24.0542 30.18C23.8399 29.8956 23.4588 29.8324 23.1745 30.034C22.8899 30.2356 22.7956 30.636 22.957 30.9573L24.2788 33.078C24.4018 33.2737 24.6074 33.3907 24.8274 33.3907C25.0475 33.3907 25.2531 33.2737 25.3761 33.078L26.6979 30.9573C26.897 30.6332 26.8144 30.1976 26.5126 29.9819Z" fill="#A1D51C"/>
<path d="M26.8526 30.9641C27.0111 30.7531 27.0447 30.464 26.9392 30.2178C26.8334 29.9715 26.6068 29.8104 26.3539 29.8024C26.101 29.794 25.8657 29.9398 25.7459 30.1787L25.6326 30.3573V27.7143C25.6326 27.3198 25.3341 27 24.9659 27C24.5978 27 24.2993 27.3198 24.2993 27.7143V30.3573L24.186 30.1787C23.9699 29.8913 23.5854 29.8275 23.2987 30.0312C23.0116 30.2349 22.9165 30.6394 23.0793 30.9641L23.7459 32H26.2393L26.8526 30.9641Z" fill="#C4F236"/>
<path d="M42.931 7.96552C42.931 10.7079 40.7079 12.931 37.9655 12.931C35.2231 12.931 33 10.7079 33 7.96552C33 5.22313 35.2231 3 37.9655 3C40.7079 3 42.931 5.22313 42.931 7.96552Z" fill="#F9E109"/>
<path d="M41.6896 7.96535C41.6896 10.0222 40.0223 11.6895 37.9655 11.6895C35.9086 11.6895 34.2413 10.0222 34.2413 7.96535C34.2413 5.90851 35.9086 4.24121 37.9655 4.24121C40.0223 4.24121 41.6896 5.90851 41.6896 7.96535Z" fill="#FCBC04"/>
<path d="M37.9655 4.24121C36.6669 4.24222 35.4627 4.91969 34.7875 6.02872C36.2541 5.14093 38.1374 5.36904 39.3495 6.58132C40.5618 7.79341 40.7899 9.67669 39.9021 11.1434C41.3249 10.2739 41.9965 8.56482 41.5461 6.95935C41.0956 5.35389 39.633 4.24343 37.9655 4.24121Z" fill="#E59730"/>
<path d="M39.6207 9.67839C39.5257 9.62283 39.4128 9.60727 39.3063 9.63515C39.2 9.66304 39.1091 9.73214 39.0538 9.8273C38.8297 10.2154 38.4137 10.4528 37.9655 10.448C37.28 10.448 36.7241 9.89216 36.7241 9.20661H38.3793C38.6078 9.20661 38.7931 9.02133 38.7931 8.79282C38.7931 8.5643 38.6078 8.37903 38.3793 8.37903H36.7241V7.55144H38.3793C38.6078 7.55144 38.7931 7.36616 38.7931 7.13765C38.7931 6.90913 38.6078 6.72385 38.3793 6.72385H36.7241C36.7241 6.03831 37.28 5.48247 37.9655 5.48247C38.4064 5.4851 38.8127 5.72129 39.0331 6.10316C39.0885 6.19833 39.1792 6.26743 39.2857 6.29531C39.392 6.32319 39.5051 6.30764 39.6001 6.25207C39.7955 6.13711 39.8619 5.88616 39.749 5.68937C39.2772 4.88704 38.3278 4.4985 37.4289 4.73995C36.53 4.98119 35.903 5.79322 35.8966 6.72385H35.4828C35.2542 6.72385 35.069 6.90913 35.069 7.13765C35.069 7.36616 35.2542 7.55144 35.4828 7.55144H35.8966V8.37903H35.4828C35.2542 8.37903 35.069 8.5643 35.069 8.79282C35.069 9.02133 35.2542 9.20661 35.4828 9.20661H35.8966C35.903 10.1372 36.53 10.9493 37.4289 11.1905C38.3278 11.432 39.2772 11.0434 39.749 10.2411C39.8658 10.0498 39.8088 9.80023 39.6207 9.67839Z" fill="#F9E109"/>
<path d="M42.931 21.9655C42.931 24.7079 40.7079 26.931 37.9655 26.931C35.2231 26.931 33 24.7079 33 21.9655C33 19.2231 35.2231 17 37.9655 17C40.7079 17 42.931 19.2231 42.931 21.9655Z" fill="#F9E109"/>
<path d="M42.931 21.9655C42.931 24.7079 40.7079 26.931 37.9655 26.931C35.2231 26.931 33 24.7079 33 21.9655C33 19.2231 35.2231 17 37.9655 17C40.7079 17 42.931 19.2231 42.931 21.9655Z" fill="#F9E109"/>
<path d="M41.6896 21.9653C41.6896 24.0222 40.0223 25.6895 37.9655 25.6895C35.9086 25.6895 34.2413 24.0222 34.2413 21.9653C34.2413 19.9085 35.9086 18.2412 37.9655 18.2412C40.0223 18.2412 41.6896 19.9085 41.6896 21.9653Z" fill="#FCBC04"/>
<path d="M37.9655 18.2412C36.6669 18.2422 35.4627 18.9197 34.7875 20.0287C36.2541 19.1409 38.1374 19.369 39.3495 20.5813C40.5618 21.7934 40.7899 23.6767 39.9021 25.1434C41.3249 24.2739 41.9965 22.5648 41.5462 20.9594C41.0956 19.3539 39.633 18.2434 37.9655 18.2412Z" fill="#E59730"/>
<path d="M37.9655 19.8964C38.4225 19.8964 38.7931 20.2669 38.7931 20.724C38.7931 20.9525 38.9783 21.1378 39.2069 21.1378C39.4354 21.1378 39.6206 20.9525 39.6206 20.724C39.6182 19.9711 39.1081 19.3149 38.3793 19.1268V18.655C38.3793 18.4265 38.194 18.2412 37.9655 18.2412C37.737 18.2412 37.5517 18.4265 37.5517 18.655V19.1268C36.7548 19.3432 36.2392 20.1138 36.3434 20.9329C36.4477 21.7522 37.1397 22.3692 37.9655 22.3791C38.4225 22.3791 38.7931 22.7497 38.7931 23.2067C38.7931 23.6638 38.4225 24.0343 37.9655 24.0343C37.5084 24.0343 37.1379 23.6638 37.1379 23.2067C37.1379 22.9782 36.9526 22.7929 36.7241 22.7929C36.4956 22.7929 36.3103 22.9782 36.3103 23.2067C36.3127 23.9596 36.8229 24.6158 37.5517 24.8039V25.2757C37.5517 25.5042 37.737 25.6895 37.9655 25.6895C38.194 25.6895 38.3793 25.5042 38.3793 25.2757V24.8039C39.1761 24.5875 39.6918 23.8169 39.5875 22.9978C39.4833 22.1785 38.7912 21.5615 37.9655 21.5516C37.5084 21.5516 37.1379 21.181 37.1379 20.724C37.1379 20.2669 37.5084 19.8964 37.9655 19.8964Z" fill="#F9E109"/>
<path d="M43.5862 38.7931C43.5862 41.9925 40.9925 44.5862 37.7931 44.5862C34.5937 44.5862 32 41.9925 32 38.7931C32 35.5937 34.5937 33 37.7931 33C40.9925 33 43.5862 35.5937 43.5862 38.7931Z" fill="#F9E109"/>
<path d="M42.3448 38.7934C42.3448 41.3073 40.3069 43.3451 37.7931 43.3451C35.2792 43.3451 33.2413 41.3073 33.2413 38.7934C33.2413 36.2795 35.2792 34.2417 37.7931 34.2417C40.3069 34.2417 42.3448 36.2795 42.3448 38.7934Z" fill="#FCBC04"/>
<path d="M37.793 34.2417C35.9869 34.2421 34.352 35.3105 33.6262 36.9645C35.246 35.6085 37.5859 35.5453 39.2767 36.8119C40.9674 38.0784 41.5644 40.3419 40.7185 42.2775C42.1821 41.0471 42.7208 39.0331 42.0667 37.2362C41.4125 35.4396 39.7052 34.2431 37.793 34.2417Z" fill="#E59730"/>
<path d="M40.2758 37.5518C40.2758 36.6378 39.5347 35.8967 38.6206 35.8967V35.0691C38.6206 34.8406 38.4354 34.6553 38.2069 34.6553C37.9783 34.6553 37.7931 34.8406 37.7931 35.0691V35.8967H36.9655V35.0691C36.9655 34.8406 36.7802 34.6553 36.5517 34.6553C36.3232 34.6553 36.1379 34.8406 36.1379 35.0691V35.8967H35.7241C35.4956 35.8967 35.3103 36.0819 35.3103 36.3104C35.3103 36.539 35.4956 36.7242 35.7241 36.7242H36.1379V40.8622H35.7241C35.4956 40.8622 35.3103 41.0474 35.3103 41.276C35.3103 41.5045 35.4956 41.6898 35.7241 41.6898H36.1379V42.5173C36.1379 42.7459 36.3232 42.9311 36.5517 42.9311C36.7802 42.9311 36.9655 42.7459 36.9655 42.5173V41.6898H37.7931V42.5173C37.7931 42.7459 37.9783 42.9311 38.2069 42.9311C38.4354 42.9311 38.6206 42.7459 38.6206 42.5173V41.6898C39.307 41.6853 39.9196 41.2578 40.1602 40.6149C40.4009 39.9719 40.2197 39.2472 39.7048 38.7932C40.0651 38.481 40.2732 38.0285 40.2758 37.5518ZM39.4482 40.0346C39.4482 40.4916 39.0777 40.8622 38.6206 40.8622H36.9655V39.207H38.6206C39.0777 39.207 39.4482 39.5776 39.4482 40.0346ZM36.9655 38.3794V36.7242H38.6206C39.0777 36.7242 39.4482 37.0948 39.4482 37.5518C39.4482 38.0089 39.0777 38.3794 38.6206 38.3794H36.9655Z" fill="#F9E109"/>
</svg>
