<svg id="Capa_1" enable-background="new 0 0 482 482" height="512" viewBox="0 0 482 482" width="512" xmlns="http://www.w3.org/2000/svg"><g><path d="m241 0-121.166 241 121.166 241c133.101 0 241-107.899 241-241s-107.899-241-241-241z" fill="#bae9ff"/><path d="m0 241c0 133.101 107.899 241 241 241v-482c-133.101 0-241 107.899-241 241z" fill="#e3f6ff"/><path d="m241 60-91 181 91 181c99.964 0 181-81.036 181-181s-81.036-181-181-181z" fill="#ff5178"/><path d="m60 241c0 99.964 81.037 181 181 181v-362c-99.963 0-181 81.036-181 181z" fill="#ff7c6e"/><path d="m195.5 162.192v157.616l45.5-26.269 30-52.539-30-52.539z" fill="#fff"/><path d="m241 188.461v105.078l91-52.539z" fill="#e3f6ff"/></g></svg>