<svg height="512" viewBox="0 0 64 64" width="512" xmlns="http://www.w3.org/2000/svg"><g id="Flat"><g id="Color_copy" data-name="Color copy"><g><path d="m47.464 40.464h8a2 2 0 0 1 2 2v14a6 6 0 0 1 -6 6 6 6 0 0 1 -6-6v-14a2 2 0 0 1 2-2z" fill="#c4f236" transform="matrix(.707 -.707 .707 .707 -21.317 51.464)"/><path d="m59.243 54.243a6 6 0 0 1 -8.486 0l-8.813-8.814-1.086 1.086a2 2 0 0 0 0 2.828l9.9 9.9a5.988 5.988 0 0 0 9.675-6.743 5.964 5.964 0 0 1 -1.19 1.743z" fill="#a1d51c"/><path d="m35.029 30.029h6v16h-6z" fill="#fcbc04" transform="matrix(.707 -.707 .707 .707 -15.752 38.029)"/><path d="m43.78 39.538a4.975 4.975 0 0 1 -6.232.158 19.983 19.983 0 0 0 2.728-3.662l-5.782-5.783-4.243 4.243 11.314 11.314 4.243-4.243z" fill="#e59730"/><circle cx="23" cy="23" fill="#f9e109" r="20"/><path d="m27 38a19.986 19.986 0 0 1 -17.431-29.788 19.986 19.986 0 1 0 30.862 24.576 19.9 19.9 0 0 1 -13.431 5.212z" fill="#fcbc04"/><path d="m44.757 48.757h12v4h-12z" fill="#aae1f9" transform="matrix(.707 -.707 .707 .707 -21.024 50.757)"/><circle cx="23" cy="23" fill="#aae1f9" r="16"/><path d="m10 49h10v4h-10z" fill="#aae1f9"/><path d="m6 57h14v4h-14z" fill="#aae1f9"/><g fill="#57b7eb"><path d="m23 7a15.957 15.957 0 0 0 -12.7 6.3 15.98 15.98 0 0 1 22.4 22.4 15.986 15.986 0 0 0 -9.7-28.7z"/><path d="m34.314 34.314a16 16 0 0 1 -22.628-22.628z"/><path d="m45.997 51.75h3.536v4h-3.536z" transform="matrix(.707 -.707 .707 .707 -24.017 49.518)"/><path d="m16 51a3.982 3.982 0 0 1 -3.445-2h-2.555v4h10v-2z"/><path d="m12 59a3.982 3.982 0 0 1 -3.445-2h-2.555v4h14v-2z"/></g><circle cx="23" cy="23" fill="#c4f236" r="11"/><path d="m27 30a10.986 10.986 0 0 1 -9.51-16.51 10.993 10.993 0 1 0 15.02 15.02 10.93 10.93 0 0 1 -5.51 1.49z" fill="#a1d51c"/><path d="m23 34a10.962 10.962 0 0 0 7.778-3.222l-15.556-15.556a11 11 0 0 0 7.778 18.778z" fill="#a1d51c"/><path d="m27 30a10.961 10.961 0 0 1 -10.662-13.662l-1.116-1.116a11 11 0 1 0 15.556 15.556l-1.116-1.116a10.969 10.969 0 0 1 -2.662.338z" fill="#7ab92d"/><g><path d="m30.644 16.1a1 1 0 0 1 -.661-1.751l10.357-9.1a1 1 0 0 1 .66-.249h10a1 1 0 0 1 0 2h-9.623l-10.077 8.849a1 1 0 0 1 -.656.251z" fill="#c4f236"/><g fill="#fcbc04"><path d="m23 35c-3.925 0-7-5.271-7-12s3.075-12 7-12 7 5.271 7 12-3.075 12-7 12zm0-22c-2.71 0-5 4.58-5 10s2.29 10 5 10 5-4.58 5-10-2.29-10-5-10z"/><path d="m23 34a1 1 0 0 1 -1-1v-20a1 1 0 0 1 2 0v20a1 1 0 0 1 -1 1z"/><path d="m34 24h-22a1 1 0 0 1 0-2h22a1 1 0 0 1 0 2z"/><path d="m23 35a12 12 0 1 1 12-12 12.013 12.013 0 0 1 -12 12zm0-22a10 10 0 1 0 10 10 10.011 10.011 0 0 0 -10-10z"/></g></g><path d="m51 3h10v6h-10z" fill="#aae1f9"/><path d="m57 7a4 4 0 0 1 -4-4h-2v6h10v-2z" fill="#57b7eb"/></g></g></g></svg>