<svg height="512" viewBox="0 0 64 64" width="512" xmlns="http://www.w3.org/2000/svg"><g id="Flat"><g id="Color_copy" data-name="Color copy"><g><path d="m19.817 7.367h34v48h-34z" fill="#4891d3" transform="matrix(.94 -.342 .342 .94 -8.508 14.484)"/><path d="m20 9h34v46h-34z" fill="#aae1f9"/><path d="m47 47a20 20 0 0 1 -20-20v-18h-7v46h34v-8z" fill="#57b7eb"/><g><path d="m34.714 40a1 1 0 0 1 -.5-1.867l1.3-.75a1 1 0 0 1 1 1.733l-1.3.75a.992.992 0 0 1 -.5.134z" fill="#f9e109"/><path d="m15.661 36a4 4 0 0 1 4 4v24a0 0 0 0 1 0 0h-8a0 0 0 0 1 0 0v-24a4 4 0 0 1 4-4z" fill="#f9e109" transform="matrix(-.5 -.866 .866 -.5 -19.809 88.562)"/><path d="m34.213 38.133 1 1.732-5.428 6.598-4-6.928z" fill="#d0d8da"/><path d="m22.386 46.735-13.386 7.728a3.985 3.985 0 0 1 -5.441-1.47 3.988 3.988 0 0 0 5.441 5.47l20.784-12-1.962-3.4a47.029 47.029 0 0 1 -5.436 3.672z" fill="#fcbc04"/><path d="m33.019 38.332a47.124 47.124 0 0 1 -5.2 4.732l1.962 3.4 5.429-6.6-1-1.732z" fill="#93999a"/><path d="m9.6 54.5a1 1 0 0 1 -.5-1.867l12.99-7.5a1 1 0 1 1 1 1.733l-12.99 7.5a1 1 0 0 1 -.5.134z" fill="#93999a"/><path d="m23.089 46.866a.988.988 0 0 0 .485-.874c-.4.246-.783.509-1.188.743l-13.247 7.648a.982.982 0 0 0 .96-.017z" fill="#656b76"/><path d="m8.599 49.499h2v8h-2z" fill="#d0d8da" transform="matrix(.866 -.5 .5 .866 -25.463 11.967)"/><path d="m10.733 53.463-1.732 1-.001.001 1.732 3 1.267-.731.466-.27z" fill="#93999a"/></g><path d="m39 20h10v10h-10z" fill="#f9e109"/><path d="m42.069 20h-3.069v10h10v-3.069a7.994 7.994 0 0 1 -6.931-6.931z" fill="#fcbc04"/><g fill="#c4f236"><path d="m49 17h-18a1 1 0 0 1 0-2h18a1 1 0 0 1 0 2z"/><path d="m34 23h-6a1 1 0 0 1 0-2h6a1 1 0 0 1 0 2z"/><path d="m34 27h-9a1 1 0 0 1 0-2h9a1 1 0 0 1 0 2z"/><path d="m34 31h-9a1 1 0 0 1 0-2h9a1 1 0 0 1 0 2z"/><path d="m34 35h-9a1 1 0 0 1 0-2h9a1 1 0 0 1 0 2z"/><path d="m49 35h-9a1 1 0 0 1 0-2h9a1 1 0 0 1 0 2z"/><path d="m49 39h-8a1 1 0 0 1 0-2h8a1 1 0 0 1 0 2z"/><path d="m49 43h-11a1 1 0 0 1 0-2h11a1 1 0 0 1 0 2z"/><path d="m49 47h-14a1 1 0 0 1 0-2h14a1 1 0 0 1 0 2z"/></g><path d="m41 51h-10a1 1 0 0 1 0-2h10a1 1 0 0 1 0 2z" fill="#a1d51c"/><path d="m24 26a1 1 0 0 0 1 1h2v-2h-2a1 1 0 0 0 -1 1z" fill="#a1d51c"/><path d="m24 30a1 1 0 0 0 1 1h2.4a19.666 19.666 0 0 1 -.3-2h-2.1a1 1 0 0 0 -1 1z" fill="#a1d51c"/><path d="m24 34a1 1 0 0 0 1 1h3.675a19.923 19.923 0 0 1 -.757-2h-2.918a1 1 0 0 0 -1 1z" fill="#a1d51c"/><path d="m34 46a1 1 0 0 0 1 1h12a19.892 19.892 0 0 1 -8.674-2h-3.326a1 1 0 0 0 -1 1z" fill="#a1d51c"/></g></g></g></svg>