<svg height="512" viewBox="0 0 64 64" width="512" xmlns="http://www.w3.org/2000/svg"><g id="Flat"><g id="Color_copy" data-name="Color copy"><g><path d="m47 19h-30a14 14 0 0 0 -14 14v28a16.711 16.711 0 0 0 15.368-10.168 7.991 7.991 0 0 0 8.553-3.832h10.158a7.991 7.991 0 0 0 8.553 3.832 16.711 16.711 0 0 0 15.368 10.168v-28a14 14 0 0 0 -14-14z" fill="#f8664f"/><path d="m58 36v10a3 3 0 0 0 3 3v-16a14 14 0 0 0 -14-14h-20a3 3 0 0 0 3 3h14a14 14 0 0 1 14 14z" fill="#f89c8d"/><path d="m57.181 55a5.268 5.268 0 0 1 -3.724-1.543l-4.914-4.915a5.271 5.271 0 0 0 -3.724-1.542 5.266 5.266 0 0 1 -4.382-2.345 9.839 9.839 0 0 0 -6.037-4.063 16.005 16.005 0 0 1 -12.4-15.592v-6h-5a14 14 0 0 0 -14 14v28a16.711 16.711 0 0 0 15.368-10.168 7.991 7.991 0 0 0 8.553-3.832h10.158a7.991 7.991 0 0 0 8.553 3.832 16.711 16.711 0 0 0 15.368 10.168v-6z" fill="#cc5144"/><circle cx="47" cy="26" fill="#f9e109" r="2"/><circle cx="53" cy="31" fill="#f9e109" r="2"/><circle cx="42" cy="33" fill="#f9e109" r="2"/><circle cx="48" cy="38" fill="#f9e109" r="2"/><g><path d="m19 37a5 5 0 0 0 -5 5h5z" fill="#fcbc04"/><path d="m24 42a5 5 0 0 0 -5-5v5z" fill="#f9e109"/><path d="m19 42v5a5 5 0 0 0 5-5z" fill="#fcbc04"/><path d="m14 42a5 5 0 0 0 5 5v-5z" fill="#e59730"/></g><path d="m25 19h14a0 0 0 0 1 0 0v6a2 2 0 0 1 -2 2h-10a2 2 0 0 1 -2-2v-6a0 0 0 0 1 0 0z" fill="#57b7eb"/><circle cx="43" cy="45" fill="#f9e109" r="2"/><path d="m57 38h4a0 0 0 0 1 0 0v16a0 0 0 0 1 0 0h-4a2 2 0 0 1 -2-2v-12a2 2 0 0 1 2-2z" fill="#57b7eb"/><path d="m5 38h4a0 0 0 0 1 0 0v16a0 0 0 0 1 0 0h-4a2 2 0 0 1 -2-2v-12a2 2 0 0 1 2-2z" fill="#57b7eb" transform="matrix(-1 0 0 -1 12 92)"/><path d="m27 19a3 3 0 0 0 3 3h9v-3z" fill="#aae1f9"/><path d="m58 46a3 3 0 0 0 3 3v-11h-3z" fill="#aae1f9"/><g><circle cx="17" cy="29" fill="#f89c8d" r="4"/><path d="m19 31a3.969 3.969 0 0 1 -2.662-1.034c1.662.034 2.662-1.977 2.662-2.966l-1-1.859a3.977 3.977 0 0 0 -1-.141 3.908 3.908 0 0 0 -1.641.359 4 4 0 1 0 5.281 5.28 3.961 3.961 0 0 1 -1.64.361z" fill="#f8664f"/><path d="m15 22h4a0 0 0 0 1 0 0v5a2 2 0 0 1 -2 2 2 2 0 0 1 -2-2v-5a0 0 0 0 1 0 0z" fill="#f9e109"/><path d="m18.664 27.973a2.075 2.075 0 0 1 -1.664-2.08.979.979 0 0 1 .825-.962 4.883 4.883 0 0 0 1.175-.374v-2.557h-4v5a1.994 1.994 0 0 0 3.736.976c-.025-.003-.048.001-.072-.003z" fill="#fcbc04"/><circle cx="17" cy="19" fill="#f89c8d" r="5"/><path d="m19 22a5 5 0 0 1 -5-5 4.95 4.95 0 0 1 .625-2.375 4.984 4.984 0 1 0 6.75 6.75 4.95 4.95 0 0 1 -2.375.625z" fill="#f8664f"/></g><path d="m43 34a1.992 1.992 0 0 1 -1.82-2.82 2 2 0 1 0 2.64 2.64 1.99 1.99 0 0 1 -.82.18z" fill="#fcbc04"/><path d="m49 39a1.992 1.992 0 0 1 -1.82-2.82 2 2 0 1 0 2.64 2.64 1.99 1.99 0 0 1 -.82.18z" fill="#fcbc04"/><path d="m44 46a1.992 1.992 0 0 1 -1.82-2.82 2 2 0 1 0 2.64 2.64 1.99 1.99 0 0 1 -.82.18z" fill="#fcbc04"/><path d="m54 32a1.992 1.992 0 0 1 -1.82-2.82 2 2 0 1 0 2.64 2.64 1.99 1.99 0 0 1 -.82.18z" fill="#fcbc04"/><path d="m48 27a1.992 1.992 0 0 1 -1.82-2.82 2 2 0 1 0 2.64 2.64 1.99 1.99 0 0 1 -.82.18z" fill="#fcbc04"/><path d="m24 42a4.712 4.712 0 0 1 -.1 1h-3.9v3.9a5.05 5.05 0 0 1 -2 0v-3.9h-3.9a5.05 5.05 0 0 1 0-2h3.9v-3.9a5.05 5.05 0 0 1 2 0v3.9h3.9a4.712 4.712 0 0 1 .1 1z" fill="#cc5144"/><path d="m24 42a4.712 4.712 0 0 1 -.1 1h-3.9v3.9a5.05 5.05 0 0 1 -2 0v-3.9h-3.9a5.05 5.05 0 0 1 0-2h3.9v-3.9h2v3.9h3.9a4.712 4.712 0 0 1 .1 1z" fill="#cc5144"/><g fill="#4891d3"><path d="m30 42h-2a1 1 0 0 1 0-2h2a1 1 0 0 1 0 2z"/><path d="m36 42h-2a1 1 0 0 1 0-2h2a1 1 0 0 1 0 2z"/><path d="m61 41v2h-2a1 1 0 0 1 0-2z"/><path d="m58 45h3v2h-3a1 1 0 0 1 0-2z"/><path d="m58 49h3v2h-3a1 1 0 0 1 0-2z"/><path d="m61 41v2h-2a1 1 0 0 1 0-2z"/><path d="m61 45v2h-3a1 1 0 0 1 0-2z"/><path d="m61 49v2h-3a1 1 0 0 1 0-2z"/><path d="m6 42a1 1 0 0 1 -1 1h-2v-2h2a1 1 0 0 1 1 1z"/><path d="m7 50a1 1 0 0 1 -1 1h-3v-2h3a1 1 0 0 1 1 1z"/><path d="m7 46a1 1 0 0 1 -1 1h-3v-2h3a1 1 0 0 1 1 1z"/><path d="m6 42a1 1 0 0 1 -1 1h-2v-2h2a1 1 0 0 1 1 1z"/><path d="m7 46a1 1 0 0 1 -1 1h-3v-2h3a1 1 0 0 1 1 1z"/><path d="m7 50a1 1 0 0 1 -1 1h-3v-2h3a1 1 0 0 1 1 1z"/></g><path d="m34 37a1 1 0 0 1 -.9-.553l-1.1-2.211-1.1 2.211a1.042 1.042 0 0 1 -1.79 0l-2-4a1 1 0 0 1 1.79-.894l1.1 2.211 1.105-2.211a1.042 1.042 0 0 1 1.79 0l1.105 2.211 1.1-2.211a1 1 0 0 1 1.79.894l-2 4a1 1 0 0 1 -.89.553z" fill="#f9e109"/><path d="m33.414 13.586a1 1 0 0 1 -.707-.293 1.021 1.021 0 0 0 -1.414 0 1 1 0 0 1 -1.415-1.414 3.074 3.074 0 0 1 4.244 0 1 1 0 0 1 -.708 1.707z" fill="#f9e109"/><path d="m36.243 10.758a1 1 0 0 1 -.707-.293 5 5 0 0 0 -7.072 0 1 1 0 1 1 -1.414-1.414 7 7 0 0 1 9.9 0 1 1 0 0 1 -.707 1.707z" fill="#f9e109"/><path d="m39.071 7.929a1 1 0 0 1 -.707-.293 9.009 9.009 0 0 0 -12.728 0 1 1 0 0 1 -1.414-1.414 11.012 11.012 0 0 1 15.556 0 1 1 0 0 1 -.707 1.707z" fill="#f9e109"/><path d="m34.4 40.592a10.53 10.53 0 0 1 2.456.9.982.982 0 0 0 .144-.492 1 1 0 0 0 -1-1h-2a.993.993 0 0 0 -.7.29c.36.11.724.217 1.1.302z" fill="#57b7eb"/></g></g></g></svg>