<svg width="131" height="45" viewBox="0 0 131 45" fill="none" xmlns="http://www.w3.org/2000/svg">
<g clip-path="url(#clip0)">
<path d="M7.297 38.063L1.59099 28.482H-0.00100708V43.551H2.049L2.00999 32.986L6.63199 40.686H7.95999L12.544 33.048L12.524 43.548H14.574V28.482H13.004L7.297 38.063Z" fill="#F59120"/>
<path d="M23.462 28.482H18.151V43.551H23.462C28.124 43.551 31.38 40.409 31.38 35.911C31.38 31.537 28.124 28.482 23.462 28.482ZM23.462 41.629H20.2V30.405H23.462C24.2168 30.3765 24.9696 30.5006 25.6754 30.7697C26.3811 31.0389 27.0253 31.4477 27.5694 31.9717C28.1135 32.4956 28.5463 33.1239 28.8419 33.819C29.1375 34.5141 29.2899 35.2617 29.2899 36.017C29.2899 36.7724 29.1375 37.5199 28.8419 38.215C28.5463 38.9101 28.1135 39.5384 27.5694 40.0623C27.0253 40.5863 26.3811 40.9951 25.6754 41.2643C24.9696 41.5335 24.2168 41.6575 23.462 41.629Z" fill="#F59120"/>
<path d="M61.3 35.205V43.555H59.166V35.299C59.166 32.286 57.596 30.559 54.99 30.559C54.0352 30.5612 53.0989 30.8222 52.2806 31.3142C51.4623 31.8062 50.7927 32.5108 50.343 33.353C50.4735 33.9616 50.5369 34.5826 50.532 35.205V43.555H48.398V35.299C48.398 32.286 46.798 30.559 44.224 30.559C43.3128 30.5784 42.4217 30.8309 41.6357 31.2923C40.8498 31.7538 40.195 32.4088 39.734 33.195V43.555H37.6V29.055H39.734V30.719C40.3283 30.0154 41.0759 29.4573 41.9194 29.0874C42.7628 28.7175 43.6798 28.5456 44.6 28.585C45.592 28.5542 46.5743 28.7881 47.446 29.2626C48.3177 29.7371 49.0474 30.4352 49.56 31.285C50.2451 30.4074 51.1288 29.705 52.1383 29.2356C53.1479 28.7662 54.2544 28.5432 55.367 28.585C58.851 28.582 61.3 31.124 61.3 35.205Z" fill="#3B3B3B"/>
<path d="M79.324 43.555H77.189V41.955C75.7741 43.2896 73.8895 44.0117 71.945 43.964C69.9391 43.9316 68.0263 43.1119 66.6193 41.6819C65.2122 40.2519 64.4236 38.3262 64.4236 36.32C64.4236 34.3138 65.2122 32.3881 66.6193 30.9581C68.0263 29.5281 69.9391 28.7085 71.945 28.676C73.8896 28.6287 75.7742 29.3511 77.189 30.686V29.053H79.324V43.555ZM77.189 39.443V33.195C76.648 32.3763 75.9105 31.7062 75.0439 31.2457C74.1773 30.7853 73.2093 30.5492 72.228 30.559C70.7266 30.5986 69.3001 31.2228 68.2521 32.2987C67.2042 33.3746 66.6178 34.8171 66.6178 36.319C66.6178 37.8209 67.2042 39.2634 68.2521 40.3393C69.3001 41.4152 70.7266 42.0394 72.228 42.079C73.2096 42.0892 74.1781 41.8533 75.045 41.3928C75.912 40.9323 76.6498 40.262 77.191 39.443H77.189Z" fill="#3B3B3B"/>
<path d="M94.114 43.524C93.0977 43.8476 92.0385 44.0162 90.972 44.024C87.647 44.024 85.949 42.11 85.949 38.343V30.903H82.09V29.051H85.949V23.683H88.086V29.051H93.581V30.903H88.086V38.343C88.086 40.979 89.121 42.043 91.317 42.043C92.1461 42.0236 92.9692 41.8972 93.766 41.667L94.114 43.524Z" fill="#3B3B3B"/>
<path d="M99.45 31.563C100.096 30.6609 100.949 29.9275 101.938 29.4249C102.927 28.9222 104.023 28.665 105.132 28.675V30.716C103.975 30.7379 102.844 31.0589 101.848 31.6477C100.853 32.2365 100.026 33.0731 99.45 34.076V43.555H97.315V29.055H99.45V31.563Z" fill="#3B3B3B"/>
<path d="M108.65 23.557C108.641 23.2594 108.721 22.9658 108.88 22.7141C109.039 22.4623 109.27 22.264 109.543 22.1445C109.815 22.025 110.118 21.9899 110.411 22.0436C110.703 22.0973 110.974 22.2375 111.186 22.446C111.399 22.6546 111.544 22.9219 111.603 23.2138C111.663 23.5056 111.633 23.8085 111.519 24.0835C111.405 24.3585 111.211 24.593 110.962 24.7569C110.714 24.9207 110.422 25.0065 110.124 25.003C109.931 25.0091 109.739 24.9761 109.559 24.9059C109.38 24.8358 109.216 24.7299 109.078 24.5948C108.94 24.4597 108.831 24.2981 108.758 24.1197C108.684 23.9414 108.648 23.7499 108.65 23.557ZM111.193 43.557H109.058V29.057H111.193V43.557Z" fill="#3B3B3B"/>
<path d="M122.714 37.778L117.879 43.555H115.305L121.269 36.304L115.431 29.052H118.067L122.681 34.734L127.33 29.052H129.966L124.124 36.304L130.087 43.555H127.513L122.714 37.778Z" fill="#3B3B3B"/>
<path d="M71.566 0L65.535 12.056L68.465 17.909L74.492 5.851L71.568 0.00100708L71.566 0Z" fill="#F59120"/>
<path d="M77.424 0H71.57L74.494 5.85001L80.525 17.908H86.379L77.424 0Z" fill="#3B3B3B"/>
<path d="M53.653 0L44.698 17.908H50.551L56.579 5.849L53.655 0H53.653Z" fill="#F59120"/>
<path d="M65.535 12.055L59.508 -0.000976562H53.656L56.58 5.84802L62.611 17.907H68.466L65.535 12.055Z" fill="#3B3B3B"/>
</g>
<defs>
<clipPath id="clip0">
<rect width="130.09" height="44.025" fill="white"/>
</clipPath>
</defs>
</svg>
