<svg width="70" height="95" viewBox="0 0 70 95" fill="none" xmlns="http://www.w3.org/2000/svg">
<path fill-rule="evenodd" clip-rule="evenodd" d="M42.514 6.99236C45.7693 6.75973 49.0582 8.32178 50.8034 11.3462L50.837 11.3795C51.139 11.9445 51.4075 12.5427 51.6088 13.1409C51.8102 13.7724 51.9109 14.4039 51.978 15.0354C52.2129 18.2924 50.6356 21.5163 47.6151 23.2778H47.5816C45.4673 24.4742 43.0509 24.7401 40.903 24.1751C38.7216 23.6101 36.7751 22.181 35.5334 20.0872C34.3587 17.9933 34.0903 15.6336 34.6608 13.4733C34.9964 12.1771 35.634 10.9806 36.5402 9.95033C35.2649 9.6512 34.1238 8.82031 33.4191 7.59062L33.3855 7.55737C33.1841 7.22501 33.0499 6.89266 32.9492 6.52708C32.815 6.12825 32.7478 5.79589 32.7478 5.43031C32.6136 3.56911 33.5533 1.67468 35.2649 0.677618H35.2984C35.634 0.478213 35.9697 0.345263 36.3388 0.212333C36.708 0.112631 37.0771 0.0461557 37.4128 0.0129081C39.3257 -0.120022 41.2051 0.777341 42.2119 2.53882C42.9167 3.73529 43.0509 5.13118 42.7153 6.3609C42.6818 6.59355 42.6146 6.75973 42.514 6.99236ZM39.1579 7.9562C39.225 7.92297 39.2921 7.88972 39.3593 7.82325L39.3928 7.79002H39.4264C40.1647 7.35796 40.7017 6.62678 40.903 5.86237C41.1044 5.09795 41.0373 4.23382 40.601 3.46941H40.5674C39.9298 2.37264 38.7552 1.80763 37.547 1.87411C37.3121 1.90734 37.0772 1.94058 36.8758 2.00704C36.6409 2.07351 36.4059 2.17322 36.2046 2.30617C35.1306 2.93765 34.5601 4.13412 34.6272 5.29736C34.6608 5.53001 34.6944 5.76266 34.7615 5.9953C34.8286 6.19472 34.9293 6.42737 35.03 6.62678V6.66001C35.6676 7.72355 36.8758 8.32178 38.0504 8.22208C38.1058 8.21295 38.1662 8.20632 38.2289 8.19944C38.3943 8.18133 38.5756 8.16145 38.7216 8.08915C38.818 8.07004 38.9034 8.03996 38.984 8.01154L38.9844 8.01142C39.0439 7.9904 39.1009 7.9703 39.1579 7.9562ZM42.0105 11.8448C41.7085 11.9112 41.44 12.0442 41.1715 12.2103C40.1983 12.7753 39.5606 13.6727 39.2586 14.6365C38.9901 15.6336 39.1243 16.7304 39.6613 17.6942V17.7274L39.6949 17.7607V17.7939C40.2654 18.6913 41.138 19.356 42.1448 19.6218C43.1516 19.8877 44.2591 19.7548 45.2323 19.223H45.2659C46.6419 18.4254 47.3802 16.9298 47.2795 15.4342C47.246 15.1351 47.2124 14.8359 47.1117 14.5701C47.0111 14.2709 46.9104 14.0051 46.7426 13.7392C45.9371 12.3433 44.4269 11.6121 42.9167 11.7451C42.5475 11.7118 42.2455 11.7451 42.0105 11.8448Z" fill="white"/>
<path fill-rule="evenodd" clip-rule="evenodd" d="M1.97287 31.7861C2.24135 31.6531 2.50983 31.5202 2.77832 31.4205C2.80889 31.4137 2.83913 31.407 2.86905 31.4003C3.13472 31.3412 3.37603 31.2875 3.61733 31.2875C5.06043 31.1546 6.50353 31.8525 7.27542 33.2152V33.2484C7.81239 34.1458 7.91307 35.2093 7.67815 36.1399C7.40967 37.1037 6.80558 37.9678 5.86588 38.4996L5.83232 38.5329C4.92619 39.0646 3.85225 39.1643 2.91256 38.8984C1.9393 38.6658 1.06673 38.0343 0.529764 37.137V37.1037C-0.040763 36.1731 -0.107888 35.1428 0.12704 34.179C0.395519 33.1819 1.03317 32.3178 1.97287 31.7861ZM3.34884 33.2152C3.25937 33.2373 3.16989 33.289 3.08041 33.3407C3.03565 33.3666 2.99088 33.3924 2.94612 33.4146C2.47627 33.6805 2.14067 34.1458 2.00642 34.6111C1.87218 35.1096 1.9393 35.6414 2.20779 36.1067H2.24135C2.50983 36.572 2.94612 36.9043 3.44953 37.004C3.91937 37.137 4.4899 37.1037 4.95975 36.8046C5.42959 36.5387 5.7652 36.0734 5.86588 35.6081C6.00013 35.1428 5.933 34.5778 5.66452 34.1125C5.26179 33.4478 4.52346 33.0822 3.78513 33.1155C3.67645 33.1585 3.58184 33.1737 3.49219 33.1881C3.44343 33.1959 3.39614 33.2035 3.34884 33.2152Z" fill="white"/>
<path d="M36.0368 60.2024C36.3724 59.9697 36.6409 59.6706 36.8758 59.3383C37.0771 59.0391 37.1778 58.7068 37.1778 58.3412C37.1778 57.9424 37.0771 57.6765 36.9093 57.4438C36.708 57.2444 36.4395 57.1447 36.1039 57.1447C35.8018 57.1447 35.4998 57.2444 35.3656 57.4106C35.1642 57.61 35.0971 57.8759 35.0971 58.175C35.0971 58.4409 35.1642 58.7733 35.2984 59.0724C35.4662 59.438 35.7012 59.8036 36.0368 60.2024Z" fill="white"/>
<path d="M34.6944 61.9639C34.2916 62.1965 34.0231 62.4624 33.8218 62.7615C33.6204 63.0606 33.5533 63.4262 33.5533 63.8251C33.5533 64.3568 33.7547 64.8221 34.1909 65.2209C34.5937 65.6198 35.0635 65.8192 35.634 65.8192C35.869 65.8192 36.171 65.786 36.4395 65.6862C36.708 65.5865 37.01 65.4536 37.3121 65.2542C37.2182 65.1488 37.1243 65.0446 37.031 64.9411C36.6244 64.4897 36.2301 64.052 35.9025 63.5924C35.4662 63.0606 35.03 62.4956 34.6944 61.9639Z" fill="white"/>
<path fill-rule="evenodd" clip-rule="evenodd" d="M35.8354 27.3325C54.6964 27.3325 70 42.4879 70 61.133C70 79.8113 54.6964 95 35.8354 95C16.9744 95 1.67082 79.8446 1.67082 61.133C1.67082 50.697 6.46997 41.3579 13.954 35.2093C17.9141 31.919 15.5649 30.5563 11.8061 29.7919C5.53028 28.529 0.831807 23.0119 0.831807 16.4312C0.831807 8.88679 7.00694 2.8047 14.5916 2.8047C22.2098 2.8047 28.3514 8.92004 28.3514 16.4312C28.3514 18.658 27.7809 20.7519 26.8412 22.613C25.1632 25.8701 25.0289 28.7284 29.3918 27.8975C31.5061 27.5319 33.654 27.3325 35.8354 27.3325ZM15.4642 61.565C15.4642 63.1603 15.8333 64.3236 16.5381 65.1212C17.2429 65.9189 18.3504 66.3177 19.7599 66.3177H19.9949C20.7667 67.3813 21.7064 68.4115 22.6797 69.2424C21.7064 69.4086 20.6661 69.4751 19.4914 69.4751C16.4039 69.4751 14.0211 68.8104 12.4102 67.4145C10.7993 66.0518 9.99382 64.0245 9.99382 61.3656C9.99382 58.8065 10.8664 56.8124 12.578 55.4497C14.2896 54.0538 16.7395 53.3559 19.9277 53.3559C23.0824 53.3559 25.4988 54.0538 27.1432 55.4497C28.7877 56.8456 29.6267 58.873 29.6267 61.5318C29.6267 63.7918 29.0226 65.5865 27.7138 66.8827C28.4185 67.0489 29.1233 67.1154 29.7945 67.1486V71.9013C26.1029 70.9042 19.0216 66.6833 20.0955 62.1965C20.8003 63.2268 21.8742 64.1906 23.1831 64.9883C23.2838 64.9218 23.3845 64.7889 23.4516 64.6892C23.9886 63.958 24.1899 62.9277 24.1899 61.6315C24.1899 59.9697 23.8207 58.6736 23.0824 57.8427C22.3105 56.9453 21.2366 56.5132 19.7599 56.5132C18.3839 56.5132 17.3771 56.9453 16.6052 57.8427C15.8669 58.7733 15.4642 60.003 15.4642 61.565ZM55.4347 58.9062C55.2669 58.1418 54.8978 57.5768 54.3944 57.178C53.8238 56.8124 53.1191 56.6129 52.2129 56.6129C50.7698 56.6129 49.6288 57.045 48.8233 57.9091C48.0514 58.74 47.6487 59.9697 47.6487 61.5318C47.6487 63.0606 48.0514 64.2239 48.8233 65.0215C49.5952 65.8524 50.7027 66.2512 52.1794 66.2512C53.2197 66.2512 54.0923 66.0518 54.73 65.5533C55.3676 65.088 55.7368 64.4233 55.9046 63.4927H61.9119C61.7106 65.5533 60.7709 67.0489 59.1264 68.046C57.4819 69.0098 55.032 69.4751 51.7431 69.4751C48.5884 69.4751 46.1385 68.8104 44.3598 67.4477C42.6146 66.0518 41.7421 64.1906 41.7421 61.7312C41.7421 59.0724 42.6482 57.0118 44.4605 55.5827C46.2727 54.1535 48.8904 53.4223 52.2465 53.4223C55.1663 53.4223 57.3813 53.8544 58.925 54.785C60.4688 55.7156 61.3078 57.0783 61.4421 58.9062H55.4347ZM37.9497 65.9854L38.8223 67.0157C38.923 66.999 39.0237 66.9907 39.1243 66.9824L39.1251 66.9824C39.2255 66.9741 39.3259 66.9658 39.4264 66.9492H41.1715C41.2686 66.9652 41.3735 66.9735 41.4749 66.9815C41.5838 66.9902 41.6888 66.9985 41.7756 67.0157V66.7165C41.6526 66.5836 41.5258 66.4506 41.399 66.3177C41.1454 66.0518 40.8919 65.7859 40.6681 65.5201C39.8851 64.6626 39.4435 64.1806 39.1766 63.8894C38.8992 63.5868 38.8106 63.4901 38.7238 63.3919C38.6831 63.3458 38.6427 63.2993 38.5834 63.231C38.4478 63.0749 38.213 62.8046 37.6477 62.1633C37.2449 61.698 36.8758 61.2327 36.5737 60.8006C37.2114 60.5015 37.7148 60.1359 38.084 59.7038C38.4531 59.2718 38.6209 58.8065 38.6209 58.308C38.6209 57.6765 38.4196 57.178 37.9833 56.8456C37.547 56.48 36.9429 56.3138 36.1039 56.3138C35.1306 56.3138 34.4259 56.5132 33.9225 56.9453C33.3855 57.3441 33.117 57.9424 33.117 58.7068C33.117 59.0724 33.2177 59.5044 33.3855 59.9365C33.5869 60.4018 33.8553 60.8339 34.1909 61.2327C33.3184 61.565 32.6472 62.0303 32.1773 62.6286C31.7075 63.2268 31.4725 63.8251 31.4725 64.523C31.4725 65.3539 31.741 65.9854 32.3451 66.4839C32.9156 66.9824 33.654 67.2151 34.5601 67.2151C35.1306 67.2151 35.6676 67.1154 36.2717 66.9159C36.7751 66.7165 37.3792 66.3842 37.9497 65.9854Z" fill="white"/>
</svg>
