<svg height="512" viewBox="0 0 64 64" width="512" xmlns="http://www.w3.org/2000/svg"><g id="Flat"><g id="Color_copy" data-name="Color copy"><g><path d="m3 61h7.071l6.121-6.121-7.071-7.071-6.121 6.121z" fill="#57b7eb"/><path d="m9.121 47.808-5.807 5.807a3.906 3.906 0 0 0 4.216-.541 6.964 6.964 0 0 0 1.98.764 4.925 4.925 0 0 0 1.541 6.182l5.141-5.141z" fill="#4891d3"/><path d="m23.876 52.487a5.989 5.989 0 0 0 -4.158-9.44 6.986 6.986 0 0 0 -12.066-2.547 2.991 2.991 0 0 0 -3.568 4.792 3.946 3.946 0 0 0 -1.084 2.708 4 4 0 0 0 4 4 3.959 3.959 0 0 0 2.53-.926 6.964 6.964 0 0 0 1.98.764 4.949 4.949 0 0 0 -.51 2.162 4.984 4.984 0 0 0 7.671 4.214 3.994 3.994 0 1 0 5.205-5.727z" fill="#aae1f9"/><path d="m14.61 51.247a10.511 10.511 0 0 1 -6.367-7.514 4.942 4.942 0 0 0 -.841 5.23 3.775 3.775 0 0 1 -.402.037 4 4 0 0 1 -3.7-2.495 3.891 3.891 0 0 0 -.3 1.495 4 4 0 0 0 4 4 3.922 3.922 0 0 0 2.33-.786 4.914 4.914 0 0 0 5.28.033z" fill="#57b7eb"/><path d="m22 57a3.993 3.993 0 0 1 -3.329-1.786 4.957 4.957 0 0 1 -7.419-2.722 4.793 4.793 0 0 0 -.252 1.508 4.984 4.984 0 0 0 7.671 4.214 4 4 0 0 0 7.329-2.214 3.914 3.914 0 0 0 -.3-1.492 4 4 0 0 1 -3.7 2.492z" fill="#57b7eb"/><g><path d="m25.665 11.334h24v30h-24z" fill="#c4f236" transform="matrix(.707 .707 -.707 .707 29.653 -18.92)"/><circle cx="39.079" cy="24.92" fill="#aae1f9" r="6"/><path d="m61 6.242v-3.242h-3.241a40.193 40.193 0 0 0 -17.973 4.242l16.971 16.971a40.194 40.194 0 0 0 4.243-17.971z" fill="#f9e109"/><path d="m12.916 17.142 8.486 8.485 16.97-16.97z" fill="#aae1f9"/><path d="m46.858 51.083-8.486-8.485 16.971-16.971z" fill="#57b7eb"/><path d="m17.644 36.355h16v4h-16z" fill="#f9e109" transform="matrix(.707 .707 -.707 .707 34.632 -6.899)"/><path d="m24.937 48.962-9.899-9.9 5.657-2.828 7.071 7.071z" fill="#f9e109"/><path d="m35.201 46.255h12v4h-12z" fill="#fcbc04" transform="matrix(.707 .707 -.707 .707 46.189 -15)"/><path d="m9.745 20.799h12v4h-12z" fill="#f9e109" transform="matrix(.707 .707 -.707 .707 20.733 -4.456)"/><path d="m56.758 24.212a40.194 40.194 0 0 0 4.242-17.97v-1.828l-2.122 2.121a11 11 0 0 1 -15.556 0l-.6-.6c-.993.4-1.976.826-2.937 1.306l16.972 16.972z" fill="#fcbc04"/><path d="m39.786 7.242-2.121 2.122 7.778 7.778a8 8 0 0 1 0 11.314 14 14 0 0 1 -19.8 0l-3.534-3.536-3.536 3.536 16.971 16.97 21.213-21.213z" fill="#a1d51c"/><path d="m34.837 23.506a5.991 5.991 0 0 1 10.063 2.828 6 6 0 1 0 -11.649 0 5.957 5.957 0 0 1 1.586-2.828z" fill="#57b7eb"/><path d="m45.079 24.92a6 6 0 0 1 -12 0z" fill="#57b7eb"/><path d="m48.272 35.527 5.657-5.657 1.414-4.243-16.971 16.973 8.486 8.485.725-2.177a10 10 0 0 1 .689-13.381z" fill="#4891d3"/><path d="m28.473 15.728 5.657-5.657 4.242-1.414-16.972 16.97-8.486-8.485 2.177-.726a10 10 0 0 0 13.382-.688z" fill="#57b7eb"/><g fill="#fcbc04"><path d="m21.4 31.284-1.413 1.416 7.779 7.778a2.992 2.992 0 0 1 .577 3.406l1.544 1.544 2.828-2.828z"/><path d="m20.465 38.833a8.753 8.753 0 0 1 2.356 8.013l2.116 2.116 2.829-5.657-7.066-7.071-1.886.943z"/><path d="m12.916 17.142-1.416 1.414 5.657 5.657a2 2 0 0 1 0 2.828l1.414 1.415 2.829-2.829z"/></g><path d="m46.858 51.083-1.415 1.417-5.657-5.66a2 2 0 0 0 -2.828 0l-1.414-1.414 2.828-2.826z" fill="#e59730"/></g><g fill="#aae1f9"><path d="m34 58a1 1 0 0 1 -.707-1.707l4-4a1 1 0 0 1 1.414 1.414l-4 4a1 1 0 0 1 -.707.293z"/><path d="m31 53a1 1 0 0 1 -.707-1.707l3-3a1 1 0 0 1 1.414 1.414l-3 3a1 1 0 0 1 -.707.293z"/><path d="m11 35a1 1 0 0 1 -.707-1.707l4-4a1 1 0 0 1 1.414 1.414l-4 4a1 1 0 0 1 -.707.293z"/><path d="m4.5 32.5a1 1 0 0 1 -.707-1.707l6.5-6.5a1 1 0 0 1 1.414 1.414l-6.5 6.5a1 1 0 0 1 -.707.293z"/></g></g></g></g></svg>