<svg width="270" height="270" viewBox="0 0 270 270" fill="none" xmlns="http://www.w3.org/2000/svg">
<rect width="270" height="270" rx="8" fill="#007AFF"/>
<path fill-rule="evenodd" clip-rule="evenodd" d="M159.183 230.868H161.694V207H159.183V230.868ZM86.3619 230.868H81.8755V207.598H86.3619V230.868ZM48.0935 212.319H42V208.263H58.7404V212.319H52.7139V230.868H48.0935V212.319ZM76.4517 224.452H66.6083C66.6306 225.472 66.8985 226.209 67.4118 226.663C67.9252 227.117 68.6841 227.344 69.6885 227.344C71.7644 227.344 73.6169 227.278 75.2463 227.145L76.1838 227.045L76.2508 230.336C73.7285 230.957 71.4072 231.267 69.2868 231.267C66.7645 231.267 64.9343 230.602 63.7959 229.272C62.6575 227.943 62.0884 225.782 62.0884 222.79C62.0884 216.829 64.5548 213.848 69.4876 213.848C74.3536 213.848 76.7865 216.352 76.7865 221.361L76.4517 224.452ZM72.3671 221.062H66.575C66.5973 219.776 66.8261 218.862 67.2613 218.319C67.6966 217.776 68.4499 217.505 69.5213 217.505C70.5927 217.505 71.3348 217.765 71.7477 218.286C72.1607 218.807 72.3671 219.732 72.3671 221.062ZM103.102 214.38C101.339 214.025 99.8547 213.848 98.6494 213.848C96.1718 213.848 94.375 214.529 93.259 215.892C92.143 217.255 91.585 219.466 91.585 222.524C91.585 225.583 92.1262 227.804 93.2088 229.189C94.2913 230.574 96.0714 231.267 98.549 231.267C99.8213 231.267 101.64 231.034 104.006 230.569L103.872 227.012L99.9887 227.278C99.2074 227.278 98.5657 227.2 98.0635 227.045C97.5613 226.89 97.1707 226.63 96.8917 226.264C96.6127 225.898 96.4174 225.411 96.3058 224.801C96.1942 224.192 96.1384 223.433 96.1384 222.524C96.1384 221.616 96.1942 220.862 96.3058 220.264C96.4174 219.665 96.6127 219.183 96.8917 218.818C97.1707 218.452 97.5613 218.197 98.0635 218.053C98.5657 217.909 99.1963 217.837 99.9552 217.837C100.379 217.837 100.915 217.859 101.562 217.904C102.21 217.948 102.98 218.014 103.872 218.103L104.006 214.579L103.102 214.38ZM115.825 213.848C118.593 213.848 120.568 214.607 121.751 216.125C122.934 217.643 123.526 219.776 123.526 222.524C123.526 228.353 120.959 231.267 115.825 231.267C110.691 231.267 108.125 228.353 108.125 222.524C108.125 221.194 108.258 219.998 108.526 218.934C108.794 217.87 109.229 216.962 109.832 216.208C110.435 215.455 111.227 214.873 112.209 214.463C113.191 214.053 114.397 213.848 115.825 213.848ZM118.303 226.297C117.856 227.084 117.03 227.477 115.825 227.477C115.089 227.477 114.514 227.328 114.101 227.029C113.688 226.729 113.375 226.342 113.163 225.865C112.951 225.389 112.817 224.857 112.762 224.269C112.706 223.682 112.678 223.1 112.678 222.524C112.678 220.796 112.901 219.549 113.348 218.784C113.794 218.02 114.62 217.638 115.825 217.638C117.03 217.638 117.856 218.02 118.303 218.784C118.749 219.549 118.972 220.796 118.972 222.524C118.972 224.253 118.749 225.51 118.303 226.297ZM137.086 228.608L142.409 207.864H145.088L139.028 230.868H133.269L127.209 207.864H129.887L135.211 228.608H137.086ZM149.976 230.868H152.487V214.247H149.976V230.868ZM152.487 210.49H149.976V207.598H152.487V210.49ZM171.102 230.868H168.591V207H171.102V230.868ZM189.617 227.776V219.266C189.617 217.405 189.187 216.047 188.328 215.194C187.469 214.341 186.09 213.914 184.193 213.914C182.229 213.914 180.053 214.158 177.664 214.646L177.765 216.541L178.803 216.441C179.762 216.33 180.705 216.247 181.632 216.192C182.558 216.136 183.468 216.108 184.36 216.108C185.209 216.108 185.878 216.352 186.369 216.84C186.86 217.327 187.106 218.136 187.106 219.266V220.696L181.849 221.195C180.086 221.372 178.791 221.843 177.966 222.607C177.14 223.372 176.727 224.563 176.727 226.181C176.727 227.799 177.129 229.04 177.932 229.904C178.736 230.768 179.907 231.2 181.448 231.2C183.479 231.2 185.488 230.757 187.474 229.871C188.367 230.757 189.695 231.2 191.458 231.2L191.559 229.239C190.331 229.084 189.684 228.596 189.617 227.776ZM179.305 226.048C179.305 228.087 180.153 229.106 181.849 229.106C183.345 229.106 184.84 228.851 186.336 228.342L187.106 228.076V222.591L182.151 223.056C181.146 223.145 180.421 223.433 179.975 223.92C179.528 224.408 179.305 225.117 179.305 226.048ZM199.327 238.431C200.242 238.597 201.369 238.68 202.708 238.68C207.663 238.68 210.141 236.918 210.141 233.394C210.141 232.442 210.029 231.649 209.806 231.018C209.583 230.386 209.226 229.882 208.735 229.505C208.244 229.128 207.619 228.868 206.86 228.724C206.101 228.58 205.186 228.508 204.114 228.508C202.016 228.508 200.733 228.419 200.264 228.242C199.84 228.087 199.628 227.666 199.628 226.979C199.628 226.668 199.829 226.037 200.231 225.084C200.677 225.173 201.224 225.217 201.871 225.217C204.103 225.217 205.738 224.801 206.776 223.97C207.814 223.139 208.333 221.682 208.333 219.599C208.333 218.114 207.965 217.006 207.228 216.275L210.409 216.341V214.214L205.454 214.347L204.951 214.247C204.081 214.025 203.088 213.914 201.972 213.914C197.798 213.914 195.711 215.809 195.711 219.599C195.711 222.147 196.592 223.821 198.356 224.618L198.054 225.15C197.496 226.17 197.217 226.868 197.217 227.245C197.217 228.353 197.53 229.117 198.155 229.538C197.686 229.893 197.284 230.22 196.949 230.519C196.615 230.818 196.341 231.128 196.129 231.45C195.917 231.771 195.761 232.104 195.66 232.447C195.56 232.791 195.51 233.195 195.51 233.66C195.51 234.613 195.633 235.411 195.878 236.054C196.124 236.697 196.531 237.212 197.1 237.6C197.669 237.987 198.411 238.264 199.327 238.431ZM198.222 219.599C198.222 220.929 198.517 221.865 199.109 222.408C199.7 222.951 200.677 223.222 202.038 223.222C203.4 223.222 204.371 222.945 204.951 222.391C205.532 221.837 205.822 220.895 205.822 219.566C205.822 218.236 205.532 217.3 204.951 216.757C204.371 216.214 203.4 215.942 202.038 215.942C200.677 215.942 199.7 216.219 199.109 216.773C198.517 217.327 198.222 218.269 198.222 219.599ZM198.222 234.957C198.065 234.558 197.987 234.059 197.987 233.461C197.987 232.84 198.116 232.331 198.372 231.932C198.629 231.533 199.126 231.067 199.862 230.536L203.478 230.702C204.282 230.702 204.951 230.735 205.487 230.802C206.023 230.868 206.447 231.001 206.759 231.2C207.072 231.4 207.289 231.677 207.412 232.032C207.535 232.386 207.596 232.84 207.596 233.394C207.596 234.547 207.217 235.367 206.458 235.854C205.699 236.342 204.427 236.586 202.641 236.586C201.748 236.586 201.006 236.536 200.415 236.436C199.823 236.336 199.349 236.165 198.992 235.921C198.635 235.677 198.378 235.356 198.222 234.957ZM226.513 228.807L227.484 228.707L227.551 230.669C226.278 230.846 225.101 230.979 224.018 231.067C222.936 231.156 221.937 231.2 221.022 231.2C218.611 231.2 216.904 230.508 215.899 229.123C214.895 227.738 214.393 225.583 214.393 222.657C214.393 216.829 216.725 213.914 221.39 213.914C223.667 213.914 225.358 214.54 226.462 215.793C227.567 217.045 228.12 219.012 228.12 221.693L227.986 223.588H216.937C216.937 225.45 217.272 226.818 217.942 227.693C218.611 228.569 219.783 229.006 221.457 229.006C223.131 229.006 224.816 228.94 226.513 228.807ZM225.609 221.593H216.904C216.926 219.643 217.311 218.225 218.059 217.338C218.807 216.452 219.928 216.009 221.424 216.009C222.897 216.009 223.963 216.43 224.621 217.272C225.28 218.114 225.609 219.555 225.609 221.593Z" fill="white"/>
<path d="M156.703 30L166.386 39.871V163.258H191.335V39.871L201.018 30H224.219V49.7419H210.701V173.129L201.018 183H156.703L147.02 173.129V49.7419H122.199V173.129L112.516 183H68.2006L58.5178 173.129V49.7419H45V30H68.2006L77.8834 39.871V163.258H102.833V39.871L112.516 30H156.703Z" fill="white"/>
</svg>
